<svg xmlns="http://www.w3.org/2000/svg" version="1.0" width="423.000000pt" height="600.000000pt" viewBox="0 0 423.000000 600.000000" preserveAspectRatio="xMidYMid meet">
  <g transform="translate(0.000000,600.000000) scale(0.100000,-0.100000)" fill="#000000" stroke="none">
    <path d="M1280 5880 c0 -5 5 -10 10 -10 6 0 10 5 10 10 0 6 -4 10 -10 10 -5 0 -10 -4 -10 -10z"/>
    <path d="M1592 5856 c7 -8 15 -12 17 -11 5 6 -10 25 -20 25 -5 0 -4 -6 3 -14z"/>
    <path d="M1692 5858 c6 -18 28 -21 28 -4 0 9 -7 16 -16 16 -9 0 -14 -5 -12 -12z"/>
    <path d="M1625 5850 c3 -5 14 -10 23 -10 15 0 15 2 2 10 -20 13 -33 13 -25 0z"/>
    <path d="M1785 5850 c-4 -6 3 -10 14 -10 25 0 27 6 6 13 -8 4 -17 2 -20 -3z"/>
    <path d="M1163 5843 c9 -2 23 -2 30 0 6 3 -1 5 -18 5 -16 0 -22 -2 -12 -5z"/>
    <path d="M1070 5830 c-7 -5 -20 -6 -29 -3 -11 4 -13 3 -6 -5 6 -6 26 -7 50 -3 31 5 35 8 19 13 -12 3 -28 2 -34 -2z"/>
    <path d="M945 5800 c3 -5 13 -10 21 -10 8 0 12 5 9 10 -3 6 -13 10 -21 10 -8 0 -12 -4 -9 -10z"/>
    <path d="M2110 5790 c0 -5 5 -10 10 -10 6 0 10 5 10 10 0 6 -4 10 -10 10 -5 0 -10 -4 -10 -10z"/>
    <path d="M915 5780 c4 -6 11 -8 16 -5 14 9 11 15 -7 15 -8 0 -12 -5 -9 -10z"/>
    <path d="M816 5755 c-8 -8 -17 -15 -20 -15 -8 0 -126 -115 -126 -123 0 -6 -29 -44 -58 -73 -7 -8 -11 -14 -8 -14 9 0 -54 -120 -90 -171 -32 -46 -38 -60 -35 -89 1 -18 31 36 31 56 0 7 9 18 20 24 12 7 17 16 13 27 -4 10 -2 14 4 10 7 -4 14 5 18 23 4 16 10 30 14 30 5 0 16 20 27 45 10 25 22 45 26 45 4 0 8 5 8 10 0 6 9 20 20 32 11 12 20 28 20 35 0 7 3 13 8 13 12 0 102 88 102 100 0 6 4 9 9 5 10 -6 41 21 41 36 0 13 -6 11 -24 -6z"/>
    <path d="M868 5763 c7 -3 16 -2 19 1 4 3 -2 6 -13 5 -11 0 -14 -3 -6 -6z"/>
    <path d="M2168 5763 c7 -3 16 -2 19 1 4 3 -2 6 -13 5 -11 0 -14 -3 -6 -6z"/>
    <path d="M2272 5754 c4 -3 12 -6 20 -8 7 -1 19 -5 25 -9 9 -6 11 -3 7 7 -3 9 -18 16 -32 16 -14 0 -23 -3 -20 -6z"/>
    <path d="M457 5243 c-4 -3 -7 -15 -7 -25 0 -11 -5 -18 -12 -16 -7 3 -18 -6 -25 -20 -18 -34 -16 -53 2 -21 8 15 26 30 40 33 18 5 25 13 25 31 0 24 -10 32 -23 18z"/>
    <path d="M1580 5200 c-8 -5 -12 -11 -9 -14 2 -3 11 -1 19 4 8 5 12 11 9 14 -2 3 -11 1 -19 -4z"/>
    <path d="M376 5128 c-3 -17 -4 -33 -1 -36 3 -3 5 2 5 12 0 9 4 15 9 12 4 -3 6 6 3 19 -6 33 -8 31 -16 -7z"/>
    <path d="M1415 5120 c-3 -6 1 -7 9 -4 18 7 21 14 7 14 -6 0 -13 -4 -16 -10z"/>
    <path d="M423 5065 c-3 -9 -3 -18 -1 -21 3 -3 8 4 11 16 6 23 -1 27 -10 5z"/>
    <path d="M2008 5043 c7 -3 16 -2 19 1 4 3 -2 6 -13 5 -11 0 -14 -3 -6 -6z"/>
    <path d="M347 5030 c-3 -8 -8 -35 -12 -60 -3 -25 -8 -55 -12 -67 -3 -13 -1 -23 5 -23 11 0 37 132 29 152 -3 10 -6 9 -10 -2z"/>
    <path d="M1670 4974 c-25 -29 4 -33 65 -9 55 22 57 24 22 20 -21 -2 -46 -10 -55 -17 -10 -8 -13 -9 -9 -1 11 18 -9 25 -23 7z"/>
    <path d="M1853 4983 c9 -2 25 -2 35 0 9 3 1 5 -18 5 -19 0 -27 -2 -17 -5z"/>
    <path d="M1605 4930 c4 -6 11 -8 16 -5 14 9 11 15 -7 15 -8 0 -12 -5 -9 -10z"/>
    <path d="M1566 4921 c-4 -7 -5 -15 -2 -18 9 -9 19 4 14 18 -4 11 -6 11 -12 0z"/>
    <path d="M1958 4915 c-3 -3 -45 -8 -94 -10 -49 -2 -109 -11 -134 -20 l-45 -15 70 6 c92 8 95 8 129 -1 20 -5 27 -5 22 3 -11 19 11 23 119 23 58 0 105 4 105 8 0 9 -163 15 -172 6z"/>
    <path d="M2018 4883 c6 -2 18 -2 25 0 6 3 1 5 -13 5 -14 0 -19 -2 -12 -5z"/>
    <path d="M319 4865 c-7 -12 6 -143 15 -152 12 -12 12 2 2 82 -6 44 -14 76 -17 70z"/>
    <path d="M1595 4856 c-44 -17 -71 -34 -64 -41 6 -5 22 0 104 31 11 4 26 6 33 5 6 -1 12 3 12 9 0 13 -46 11 -85 -4z"/>
    <path d="M1703 4853 c9 -2 23 -2 30 0 6 3 -1 5 -18 5 -16 0 -22 -2 -12 -5z"/>
    <path d="M2771 4834 c0 -11 3 -14 6 -6 3 7 2 16 -1 19 -3 4 -6 -2 -5 -13z"/>
    <path d="M1460 4800 c-8 -11 -20 -18 -27 -15 -7 2 -13 0 -13 -5 0 -19 35 -10 59 15 15 17 18 25 9 25 -7 0 -20 -9 -28 -20z"/>
    <path d="M630 4780 c0 -6 7 -10 15 -10 8 0 15 2 15 4 0 2 -7 6 -15 10 -8 3 -15 1 -15 -4z"/>
    <path d="M1675 4779 c-16 -5 -46 -12 -65 -15 -19 -4 -42 -7 -50 -9 -32 -5 -76 -18 -95 -28 -11 -6 -29 -12 -40 -14 -11 -2 -29 -7 -40 -12 -11 -4 -38 -14 -60 -21 -55 -17 -145 -55 -243 -103 -74 -36 -88 -47 -119 -95 -19 -30 -38 -65 -43 -78 -5 -12 -18 -25 -29 -29 -11 -3 -29 -19 -40 -34 -11 -16 -34 -43 -50 -60 -26 -27 -29 -36 -20 -57 5 -14 7 -30 3 -35 -3 -5 3 -33 12 -62 10 -28 18 -56 18 -62 1 -5 15 -46 31 -90 l30 -80 3 44 c2 27 -2 49 -11 60 -19 22 -29 47 -44 116 -19 89 -21 118 -10 140 12 24 39 45 49 39 5 -3 8 1 8 9 0 20 103 124 108 109 2 -7 10 -12 18 -12 8 0 14 -7 14 -15 0 -8 8 -15 18 -15 14 0 15 2 2 10 -8 5 -11 10 -6 10 5 0 1 9 -9 20 -10 11 -24 20 -32 20 -7 0 -13 8 -13 18 1 22 115 112 144 112 12 0 29 9 38 19 9 10 42 27 75 36 32 9 69 23 83 30 14 7 57 24 95 37 39 12 72 25 75 28 3 4 14 6 25 7 11 0 58 8 105 18 104 23 394 31 526 16 87 -10 179 -32 216 -52 10 -5 27 -9 38 -9 12 0 47 -13 78 -29 31 -16 73 -36 92 -45 19 -8 48 -26 65 -40 25 -22 27 -26 12 -32 -9 -3 -17 -10 -17 -14 0 -9 73 -25 150 -34 25 -3 46 -5 47 -5 2 -1 16 -28 33 -61 17 -34 38 -64 46 -67 13 -5 15 -17 9 -72 -7 -64 -21 -108 -32 -97 -10 9 -35 -23 -27 -36 5 -7 2 -9 -9 -5 -9 3 -18 1 -21 -6 -2 -7 -5 1 -5 16 -1 15 5 30 12 33 17 6 8 75 -11 82 -8 2 -12 -9 -12 -39 0 -44 -17 -117 -32 -133 -4 -6 -8 -18 -8 -27 0 -9 -7 -22 -15 -29 -8 -7 -15 -20 -15 -29 -1 -20 -68 -64 -86 -57 -8 3 -18 -4 -24 -14 -9 -17 -7 -20 15 -20 21 0 24 -3 15 -17 -5 -10 -19 -40 -31 -68 -12 -27 -30 -62 -40 -77 -11 -14 -19 -38 -19 -52 0 -23 -16 -68 -41 -118 -12 -24 -11 -28 6 -28 8 0 15 7 15 15 0 26 1 30 15 45 8 9 17 36 21 60 4 25 14 53 22 63 8 9 11 17 7 17 -4 0 -1 8 7 18 22 25 47 79 54 119 4 23 14 37 29 43 29 11 85 68 85 86 0 8 4 14 10 14 5 0 12 11 16 25 3 14 10 25 15 25 4 0 15 13 24 28 9 15 29 34 45 40 30 14 35 28 46 136 6 59 5 65 -16 76 -12 6 -33 35 -46 64 -31 69 -47 82 -117 93 -47 8 -60 8 -64 -3 -3 -8 -14 -14 -25 -14 -19 0 -19 2 -6 22 14 21 13 24 -21 51 -20 16 -63 42 -97 57 -33 16 -66 36 -73 44 -8 9 -24 16 -37 16 -12 0 -53 11 -91 24 -37 13 -95 29 -128 36 -75 16 -498 23 -540 9z"/>
    <path d="M1320 4770 c0 -6 -11 -15 -25 -20 -14 -5 -25 -15 -25 -22 0 -8 3 -9 8 -3 4 6 13 10 20 11 28 2 32 5 32 20 0 8 4 13 9 9 5 -3 12 -1 16 5 3 5 -3 10 -14 10 -12 0 -21 -5 -21 -10z"/>
    <path d="M685 4690 c-4 -12 -5 -24 -2 -27 3 -2 8 5 12 17 4 12 5 24 2 27 -3 2 -8 -5 -12 -17z"/>
    <path d="M332 4675 c-7 -8 -9 -15 -4 -15 5 0 15 7 22 15 16 19 -1 19 -18 0z"/>
    <path d="M1080 4639 c0 -5 5 -7 10 -4 6 3 10 8 10 11 0 2 -4 4 -10 4 -5 0 -10 -5 -10 -11z"/>
    <path d="M1424 4639 c-11 -18 18 -30 56 -24 48 7 50 7 98 -1 27 -4 42 -3 42 4 0 6 8 12 18 14 9 2 -18 7 -61 12 -56 5 -83 4 -93 -5 -10 -8 -14 -8 -14 0 0 14 -37 14 -46 0z"/>
    <path d="M1660 4642 c0 -9 27 -27 38 -26 6 1 17 2 23 3 6 0 9 7 7 14 -4 10 -68 19 -68 9z"/>
    <path d="M275 4620 c-3 -5 -1 -10 4 -10 6 0 11 5 11 10 0 6 -2 10 -4 10 -3 0 -8 -4 -11 -10z"/>
    <path d="M1756 4623 c-16 -17 -4 -33 25 -33 19 0 29 4 27 12 -5 13 -44 29 -52 21z m31 -19 c-3 -3 -12 -4 -19 -1 -8 3 -5 6 6 6 11 1 17 -2 13 -5z"/>
    <path d="M2705 4620 c3 -5 8 -10 11 -10 2 0 4 5 4 10 0 6 -5 10 -11 10 -5 0 -7 -4 -4 -10z"/>
    <path d="M1373 4613 c-7 -3 -13 -13 -13 -24 0 -10 -4 -19 -8 -19 -5 0 -14 -11 -20 -24 -7 -16 -22 -26 -46 -30 -20 -4 -36 -12 -36 -19 0 -7 -5 -46 -10 -87 -6 -41 -7 -82 -4 -92 10 -34 21 -18 23 35 4 83 15 142 29 143 6 1 14 3 17 4 3 1 9 3 15 4 5 0 21 13 35 29 14 15 32 27 40 27 18 0 20 34 3 47 -7 6 -19 8 -25 6z"/>
    <path d="M247 4593 c-3 -5 -8 -24 -12 -43 -4 -19 -11 -37 -15 -40 -12 -8 -22 -50 -12 -50 10 0 36 57 52 113 8 24 -2 38 -13 20z"/>
    <path d="M340 4590 c0 -5 5 -10 10 -10 6 0 10 5 10 10 0 6 -4 10 -10 10 -5 0 -10 -4 -10 -10z"/>
    <path d="M1877 4594 c-3 -4 -2 -16 4 -26 13 -24 35 -9 26 16 -7 17 -19 21 -30 10z"/>
    <path d="M2800 4580 c0 -13 11 -13 30 0 12 8 11 10 -7 10 -13 0 -23 -4 -23 -10z"/>
    <path d="M1173 4569 c-15 -5 -15 -6 1 -12 31 -12 76 -8 76 7 0 13 -44 17 -77 5z"/>
    <path d="M1442 4562 c-7 -5 -15 -21 -18 -36 -3 -18 -1 -25 6 -21 5 3 10 13 10 22 0 9 3 13 7 10 7 -8 33 11 33 24 0 11 -21 11 -38 1z"/>
    <path d="M1930 4563 c5 -2 8 -9 4 -14 -3 -5 0 -9 6 -9 15 0 7 23 -8 26 -7 1 -8 0 -2 -3z"/>
    <path d="M306 4518 c-4 -24 -10 -54 -13 -67 -4 -15 -2 -22 4 -18 6 4 13 26 16 49 2 24 8 51 12 61 4 9 3 17 -3 17 -5 0 -12 -19 -16 -42z"/>
    <path d="M2585 4550 c3 -5 8 -10 11 -10 2 0 4 5 4 10 0 6 -5 10 -11 10 -5 0 -7 -4 -4 -10z"/>
    <path d="M2480 4539 c0 -5 5 -7 10 -4 6 3 10 8 10 11 0 2 -4 4 -10 4 -5 0 -10 -5 -10 -11z"/>
    <path d="M817 4514 c-11 -14 -17 -27 -15 -30 6 -6 48 35 48 46 0 17 -14 10 -33 -16z"/>
    <path d="M1369 4538 c-7 -25 -7 -48 1 -48 6 0 10 11 10 25 0 20 -7 35 -11 23z"/>
    <path d="M1965 4520 c-3 -5 -1 -10 4 -10 6 0 11 5 11 10 0 6 -2 10 -4 10 -3 0 -8 -4 -11 -10z"/>
    <path d="M2230 4508 c-23 -25 -26 -46 -6 -54 8 -3 16 -14 19 -25 7 -24 27 -25 27 0 0 10 7 24 15 31 20 17 29 -7 16 -43 -14 -36 5 -36 21 -1 9 20 9 30 0 45 -7 11 -8 19 -2 19 5 0 7 7 3 16 -5 13 -11 10 -34 -15 -15 -17 -33 -31 -38 -31 -17 0 -13 40 4 46 16 7 21 34 5 34 -5 0 -18 -10 -30 -22z"/>
    <path d="M4115 4509 c-11 -17 1 -21 15 -4 8 9 8 15 2 15 -6 0 -14 -5 -17 -11z"/>
    <path d="M1505 4487 c-30 -12 -48 -28 -40 -36 3 -2 11 2 19 8 8 7 20 10 25 7 5 -4 12 -2 16 4 3 5 19 10 36 10 16 0 29 5 29 10 0 13 -47 11 -85 -3z"/>
    <path d="M757 4470 c-3 -11 -1 -20 4 -20 5 0 9 2 9 4 0 2 3 11 6 20 3 9 2 16 -4 16 -5 0 -12 -9 -15 -20z"/>
    <path d="M2712 4442 c1 -23 9 -32 45 -50 24 -11 41 -17 38 -12 -4 6 3 10 13 10 26 0 36 28 17 46 -13 14 -15 13 -15 -10 0 -29 -15 -33 -44 -11 -10 8 -23 12 -27 9 -5 -3 -9 4 -9 15 0 11 -4 22 -9 26 -5 3 -9 -7 -9 -23z"/>
    <path d="M1040 4450 c0 -5 7 -10 16 -10 8 0 12 5 9 10 -3 6 -10 10 -16 10 -5 0 -9 -4 -9 -10z"/>
    <path d="M1330 4419 c0 -30 3 -40 10 -33 16 16 17 66 3 71 -9 3 -13 -8 -13 -38z"/>
    <path d="M195 4350 c-4 -55 -11 -103 -16 -106 -12 -7 -11 -185 1 -204 7 -10 10 15 11 80 0 52 2 104 4 115 6 29 25 187 25 202 0 7 -4 13 -9 13 -5 0 -12 -45 -16 -100z"/>
    <path d="M2662 4430 c7 -10 14 -18 15 -16 6 6 -9 36 -18 36 -5 0 -4 -9 3 -20z"/>
    <path d="M840 4430 c0 -5 5 -10 11 -10 5 0 7 5 4 10 -3 6 -8 10 -11 10 -2 0 -4 -4 -4 -10z"/>
    <path d="M1406 4423 c-6 -14 -5 -15 5 -6 7 7 10 15 7 18 -3 3 -9 -2 -12 -12z"/>
    <path d="M1575 4432 c-11 -2 -25 -8 -32 -14 -7 -6 -14 -5 -18 2 -3 6 -11 7 -17 4 -20 -12 34 -33 60 -23 13 5 27 7 32 4 4 -3 10 1 13 9 7 17 -9 24 -38 18z"/>
    <path d="M1658 4403 c7 -3 16 -2 19 1 4 3 -2 6 -13 5 -11 0 -14 -3 -6 -6z"/>
    <path d="M2967 4395 c3 -8 9 -12 14 -9 12 7 11 11 -5 17 -10 4 -13 1 -9 -8z"/>
    <path d="M1715 4390 c4 -6 11 -8 16 -5 14 9 11 15 -7 15 -8 0 -12 -5 -9 -10z"/>
    <path d="M1050 4380 c0 -5 7 -10 16 -10 8 0 12 5 9 10 -3 6 -10 10 -16 10 -5 0 -9 -4 -9 -10z"/>
    <path d="M801 4364 c0 -11 3 -14 6 -6 3 7 2 16 -1 19 -3 4 -6 -2 -5 -13z"/>
    <path d="M1455 4370 c4 -6 11 -8 16 -5 14 9 11 15 -7 15 -8 0 -12 -5 -9 -10z"/>
    <path d="M1740 4376 c0 -2 7 -6 15 -10 8 -3 15 -1 15 4 0 6 -7 10 -15 10 -8 0 -15 -2 -15 -4z"/>
    <path d="M2010 4370 c0 -5 5 -10 11 -10 5 0 7 5 4 10 -3 6 -8 10 -11 10 -2 0 -4 -4 -4 -10z"/>
    <path d="M2716 4365 c4 -8 1 -22 -6 -30 -9 -11 -9 -15 -1 -15 6 0 24 -14 40 -32 17 -20 30 -27 35 -20 3 6 -7 25 -24 42 -16 17 -30 37 -30 45 0 7 -4 17 -10 20 -6 3 -7 -1 -4 -10z"/>
    <path d="M1540 4361 c0 -6 4 -13 10 -16 6 -3 7 1 4 9 -7 18 -14 21 -14 7z"/>
    <path d="M1378 4348 c5 -5 16 -8 23 -6 8 3 3 7 -10 11 -17 4 -21 3 -13 -5z"/>
    <path d="M1328 4327 c-7 -40 6 -132 20 -135 9 -2 12 4 8 15 -3 10 -6 44 -7 76 -2 59 -14 84 -21 44z"/>
    <path d="M1905 4336 c-11 -6 -22 -12 -24 -14 -3 -1 4 -9 15 -16 17 -13 20 -12 26 12 9 32 8 33 -17 18z"/>
    <path d="M2982 4330 c0 -14 2 -19 5 -12 2 6 2 18 0 25 -3 6 -5 1 -5 -13z"/>
    <path d="M2018 4334 c-11 -19 -18 -83 -10 -88 14 -8 35 61 24 80 -5 9 -12 13 -14 8z"/>
    <path d="M2527 4333 c-4 -3 -2 -14 4 -25 6 -11 8 -27 5 -36 -5 -14 -4 -14 8 1 19 24 3 81 -17 60z"/>
    <path d="M2792 4310 c7 -11 17 -20 22 -20 5 0 1 9 -9 20 -10 11 -20 20 -22 20 -2 0 2 -9 9 -20z"/>
    <path d="M1967 4313 c-4 -3 -7 -11 -7 -17 0 -6 5 -5 12 2 6 6 9 14 7 17 -3 3 -9 2 -12 -2z"/>
    <path d="M2680 4280 c-3 -64 -1 -89 12 -143 10 -40 10 -50 -2 -57 -8 -5 -12 -11 -9 -14 3 -3 16 5 28 18 20 21 22 29 13 58 -6 18 -13 57 -16 86 -4 29 -11 62 -16 75 -7 18 -9 14 -10 -23z"/>
    <path d="M4221 4310 c-1 -8 -4 -26 -7 -40 -5 -19 -4 -22 5 -14 7 6 11 24 8 40 -2 16 -5 22 -6 14z"/>
    <path d="M2456 4295 c-3 -8 -1 -15 4 -15 13 0 22 18 11 24 -5 3 -11 -1 -15 -9z"/>
    <path d="M1196 4287 c3 -10 9 -15 12 -12 3 3 0 11 -7 18 -10 9 -11 8 -5 -6z"/>
    <path d="M1698 4293 c6 -2 18 -2 25 0 6 3 1 5 -13 5 -14 0 -19 -2 -12 -5z"/>
    <path d="M1848 4249 c-1 -28 0 -56 4 -62 8 -12 9 -10 11 33 1 14 7 24 15 23 15 -4 15 -1 2 31 -15 41 -28 31 -32 -25z"/>
    <path d="M2210 4286 c0 -9 5 -16 10 -16 6 0 10 4 10 9 0 6 -4 13 -10 16 -5 3 -10 -1 -10 -9z"/>
    <path d="M237 4260 c-3 -11 -1 -20 4 -20 5 0 9 9 9 20 0 11 -2 20 -4 20 -2 0 -6 -9 -9 -20z"/>
    <path d="M1914 4256 c-9 -19 -9 -26 1 -30 14 -5 28 8 38 37 10 27 -26 21 -39 -7z"/>
    <path d="M2270 4273 c0 -4 5 -15 10 -23 8 -13 10 -13 10 2 0 9 -4 20 -10 23 -5 3 -10 3 -10 -2z"/>
    <path d="M3952 4255 c-13 -29 -5 -33 14 -7 15 20 18 32 6 32 -5 0 -14 -11 -20 -25z"/>
    <path d="M2505 4249 c-9 -14 -2 -20 14 -10 8 6 9 11 3 15 -6 3 -14 1 -17 -5z"/>
    <path d="M1483 4238 c15 -5 25 -14 22 -18 -3 -5 -1 -11 5 -15 5 -3 10 3 10 13 0 12 -9 22 -22 26 -36 9 -46 6 -15 -6z"/>
    <path d="M4190 4235 c7 -8 17 -12 22 -9 6 4 5 10 -3 15 -22 14 -33 10 -19 -6z"/>
    <path d="M1977 4217 c-21 -21 -52 -105 -43 -114 3 -3 14 5 25 18 13 17 16 30 11 45 -10 25 5 45 26 37 8 -3 14 1 14 10 0 24 -13 26 -33 4z"/>
    <path d="M2752 4210 c0 -14 2 -19 5 -12 2 6 2 18 0 25 -3 6 -5 1 -5 -13z"/>
    <path d="M232 4200 c0 -14 2 -19 5 -12 2 6 2 18 0 25 -3 6 -5 1 -5 -13z"/>
    <path d="M661 4204 c0 -11 3 -14 6 -6 3 7 2 16 -1 19 -3 4 -6 -2 -5 -13z"/>
    <path d="M715 4210 c-3 -5 1 -10 10 -10 9 0 13 5 10 10 -3 6 -8 10 -10 10 -2 0 -7 -4 -10 -10z"/>
    <path d="M1539 4208 c15 -21 31 -23 31 -6 0 6 -3 8 -7 5 -3 -4 -13 -1 -22 6 -14 11 -14 10 -2 -5z"/>
    <path d="M4162 4198 c-14 -14 -16 -48 -3 -48 6 0 13 5 17 12 4 7 3 8 -4 4 -7 -4 -12 -1 -12 9 0 9 4 14 9 11 5 -3 11 1 15 9 7 18 -5 20 -22 3z"/>
    <path d="M1905 4180 c-3 -5 -1 -10 4 -10 6 0 11 5 11 10 0 6 -2 10 -4 10 -3 0 -8 -4 -11 -10z"/>
    <path d="M1325 4151 c8 -48 24 -81 40 -87 25 -10 28 1 14 43 -12 35 -40 73 -54 73 -3 0 -3 -13 0 -29z"/>
    <path d="M1738 4163 c7 -3 16 -2 19 1 4 3 -2 6 -13 5 -11 0 -14 -3 -6 -6z"/>
    <path d="M3961 4153 c23 -29 53 -52 68 -53 15 0 -40 55 -65 64 -15 6 -15 4 -3 -11z"/>
    <path d="M2000 4144 c0 -8 5 -12 10 -9 6 4 8 11 5 16 -9 14 -15 11 -15 -7z"/>
    <path d="M4120 4145 c0 -8 5 -15 10 -15 6 0 10 7 10 15 0 8 -4 15 -10 15 -5 0 -10 -7 -10 -15z"/>
    <path d="M655 4112 c-8 -32 2 -40 20 -16 18 24 19 41 1 41 -8 0 -17 -11 -21 -25z"/>
    <path d="M2205 4130 c-3 -5 -1 -10 4 -10 6 0 11 -6 11 -12 0 -30 49 -129 73 -148 42 -34 41 -5 -3 53 -23 31 -40 65 -40 80 0 28 -34 56 -45 37z"/>
    <path d="M1898 4095 c-7 -9 -24 -28 -38 -42 -16 -18 -20 -28 -12 -31 7 -2 10 -8 6 -13 -3 -5 -1 -9 3 -9 5 0 19 18 33 40 13 22 31 41 39 42 12 3 12 5 -2 16 -13 11 -18 10 -29 -3z"/>
    <path d="M900 4090 c0 -5 5 -10 11 -10 5 0 7 5 4 10 -3 6 -8 10 -11 10 -2 0 -4 -4 -4 -10z"/>
    <path d="M861 4064 c0 -11 3 -14 6 -6 3 7 2 16 -1 19 -3 4 -6 -2 -5 -13z"/>
    <path d="M870 4019 c0 -5 5 -7 10 -4 6 3 10 8 10 11 0 2 -4 4 -10 4 -5 0 -10 -5 -10 -11z"/>
    <path d="M1501 4015 c14 -14 38 -17 141 -18 68 0 129 2 135 6 14 9 27 -28 17 -45 -5 -9 -2 -8 10 1 10 9 16 25 14 40 -3 23 -7 25 -33 21 -37 -5 -171 -2 -245 6 -52 6 -54 5 -39 -11z"/>
    <path d="M925 4010 c-3 -5 -4 -11 -1 -11 3 -1 11 -3 16 -4 6 -1 15 -3 20 -4 6 0 10 -19 10 -40 0 -22 5 -43 10 -46 18 -11 11 73 -7 95 -19 22 -38 26 -48 10z"/>
    <path d="M1995 4010 c-3 -5 -1 -10 4 -10 6 0 11 5 11 10 0 6 -2 10 -4 10 -3 0 -8 -4 -11 -10z"/>
    <path d="M1905 3972 c14 -15 40 -19 43 -7 1 6 -10 11 -25 13 -19 2 -25 0 -18 -6z"/>
    <path d="M2345 3960 c3 -5 10 -10 16 -10 5 0 9 5 9 10 0 6 -7 10 -16 10 -8 0 -12 -4 -9 -10z"/>
    <path d="M2395 3960 c-7 -12 -8 -11 28 -14 15 -2 25 0 21 3 -3 3 -9 6 -12 6 -4 0 -12 4 -19 8 -6 4 -14 3 -18 -3z"/>
    <path d="M181 3934 c0 -11 3 -14 6 -6 3 7 2 16 -1 19 -3 4 -6 -2 -5 -13z"/>
    <path d="M2060 3940 c-8 -5 -12 -12 -9 -15 4 -3 12 1 19 10 14 17 11 19 -10 5z"/>
    <path d="M2472 3937 c-9 -11 -1 -13 42 -13 42 1 52 4 44 14 -14 16 -73 16 -86 -1z"/>
    <path d="M940 3869 c-7 -11 -9 -24 -5 -27 7 -7 35 25 35 40 0 16 -19 8 -30 -13z"/>
    <path d="M2340 3865 c0 -14 5 -25 10 -25 6 0 10 11 10 25 0 14 -4 25 -10 25 -5 0 -10 -11 -10 -25z"/>
    <path d="M2701 3874 c0 -11 3 -14 6 -6 3 7 2 16 -1 19 -3 4 -6 -2 -5 -13z"/>
    <path d="M970 3855 c0 -3 7 -22 15 -42 8 -19 15 -46 15 -59 0 -13 4 -43 10 -66 39 -178 40 -180 24 -209 -7 -15 -14 -37 -14 -48 0 -21 -29 -82 -45 -93 -5 -4 -6 -8 -1 -8 4 0 1 -11 -8 -25 -10 -14 -28 -47 -42 -73 l-25 -46 26 -69 c14 -37 25 -86 25 -108 0 -36 -2 -39 -27 -40 -16 0 -37 -3 -48 -7 -58 -17 -235 0 -235 24 0 8 -10 14 -25 14 -19 0 -23 -4 -18 -17 6 -16 49 -63 57 -63 2 0 50 -47 107 -105 57 -58 110 -105 118 -105 12 0 113 -79 184 -144 16 -15 32 -24 36 -22 4 3 23 -9 42 -25 19 -17 43 -35 54 -40 33 -15 60 -33 68 -46 4 -7 16 -13 25 -13 10 0 33 -11 52 -23 36 -25 80 -40 80 -29 0 4 -26 25 -56 47 -31 22 -70 54 -86 70 -18 18 -32 25 -35 18 -5 -14 -30 -2 -84 40 -20 15 -39 27 -44 27 -4 0 -15 8 -24 18 -9 11 -32 30 -52 43 -63 42 -164 120 -167 130 -2 5 -10 9 -17 9 -8 0 -19 8 -24 18 -6 9 -11 14 -11 11 0 -4 -29 23 -65 59 -36 36 -63 67 -60 70 2 3 28 1 57 -4 41 -7 69 -5 123 8 38 9 71 16 72 14 2 -1 4 -23 5 -47 1 -45 64 -183 79 -174 4 3 10 -6 13 -19 6 -24 125 -156 140 -156 4 0 16 -10 26 -22 10 -13 21 -20 25 -16 4 3 -24 37 -62 75 -76 76 -133 142 -133 154 0 5 -11 24 -24 43 -31 46 -60 163 -48 196 4 14 8 30 7 35 -1 6 -4 36 -9 67 -5 37 -3 64 4 77 6 12 7 21 1 21 -5 0 -12 -7 -15 -16 -3 -8 -10 -12 -16 -9 -14 9 -12 41 4 57 7 8 17 24 20 36 4 12 11 22 16 22 5 0 11 13 15 30 4 16 11 32 16 35 11 8 12 -30 1 -70 -7 -23 1 -96 8 -75 2 8 10 71 14 120 6 78 18 145 28 157 11 14 13 86 3 102 -3 6 -17 64 -31 128 -13 64 -31 127 -39 140 -15 22 -25 29 -25 18z"/>
    <path d="M1940 3831 c0 -17 18 -21 24 -6 3 9 0 15 -9 15 -8 0 -15 -4 -15 -9z"/>
    <path d="M928 3720 c2 -22 6 -40 8 -40 2 0 4 18 4 40 0 22 -3 40 -8 40 -4 0 -6 -18 -4 -40z"/>
    <path d="M806 3721 c-14 -26 -18 -57 -17 -136 0 -56 5 -113 10 -126 6 -16 8 16 6 101 -1 73 2 130 7 138 6 6 7 12 2 12 -5 0 -3 4 5 9 7 5 11 15 9 22 -3 9 -11 1 -22 -20z"/>
    <path d="M740 3709 c0 -5 5 -7 10 -4 6 3 10 8 10 11 0 2 -4 4 -10 4 -5 0 -10 -5 -10 -11z"/>
    <path d="M415 3632 c-32 -21 -36 -27 -22 -30 11 -2 25 5 33 16 8 12 24 22 37 24 16 2 18 5 7 9 -8 4 -33 -5 -55 -19z"/>
    <path d="M685 3640 c3 -5 8 -10 11 -10 2 0 4 5 4 10 0 6 -5 10 -11 10 -5 0 -7 -4 -4 -10z"/>
    <path d="M1880 3640 c-11 -7 -4 -10 27 -10 23 0 44 3 46 8 7 11 -56 13 -73 2z"/>
    <path d="M840 3598 c0 -12 3 -18 7 -14 11 10 12 36 2 36 -5 0 -9 -10 -9 -22z"/>
    <path d="M367 3583 c-4 -3 -7 -11 -7 -17 0 -6 5 -5 12 2 6 6 9 14 7 17 -3 3 -9 2 -12 -2z"/>
    <path d="M1819 3579 c-10 -6 -4 -9 21 -10 19 0 62 -3 94 -5 33 -2 56 -1 52 3 -14 14 -148 24 -167 12z"/>
    <path d="M1690 3570 c0 -5 -9 -10 -20 -10 -11 0 -20 -4 -20 -9 0 -5 -7 -17 -16 -25 -14 -15 -14 -16 0 -16 9 0 16 4 16 9 0 5 10 13 23 16 42 12 77 27 77 34 0 4 -13 8 -30 9 -16 1 -30 -2 -30 -8z"/>
    <path d="M1768 3573 c6 -2 18 -2 25 0 6 3 1 5 -13 5 -14 0 -19 -2 -12 -5z"/>
    <path d="M2026 3557 c3 -10 9 -15 12 -12 3 3 0 11 -7 18 -10 9 -11 8 -5 -6z"/>
    <path d="M2500 3545 c0 -8 -5 -15 -12 -15 -6 0 -9 -3 -5 -6 7 -8 -58 -129 -84 -155 -10 -10 -19 -26 -19 -34 0 -8 -4 -15 -9 -15 -5 0 -20 -27 -33 -60 -16 -42 -28 -60 -40 -60 -10 0 -18 -6 -18 -12 0 -7 -19 -33 -41 -58 -47 -51 -73 -89 -68 -94 7 -7 42 27 79 74 19 25 38 47 42 48 5 2 8 10 8 18 0 8 4 14 9 14 10 0 39 44 101 149 24 40 48 78 54 85 16 16 56 104 56 121 0 8 -4 15 -10 15 -5 0 -10 -7 -10 -15z"/>
    <path d="M323 3533 c-3 -10 -8 -21 -10 -25 -2 -4 3 -5 10 -2 17 6 30 44 16 44 -5 0 -12 -8 -16 -17z"/>
    <path d="M2268 3543 c7 -3 16 -2 19 1 4 3 -2 6 -13 5 -11 0 -14 -3 -6 -6z"/>
    <path d="M2326 3532 c-3 -6 1 -13 10 -16 23 -9 28 -2 10 13 -8 7 -17 8 -20 3z"/>
    <path d="M921 3504 c0 -11 3 -14 6 -6 3 7 2 16 -1 19 -3 4 -6 -2 -5 -13z"/>
    <path d="M958 3489 c0 -19 0 -44 1 -56 1 -15 -3 -21 -12 -17 -7 2 -27 -2 -43 -11 l-29 -15 42 0 c37 0 43 3 49 25 3 14 10 23 14 20 8 -5 -7 75 -16 84 -2 2 -5 -11 -6 -30z"/>
    <path d="M2426 3493 c-6 -14 -5 -15 5 -6 7 7 10 15 7 18 -3 3 -9 -2 -12 -12z"/>
    <path d="M666 3491 c-8 -13 4 -42 15 -35 12 7 12 44 0 44 -6 0 -12 -4 -15 -9z"/>
    <path d="M313 3474 c-3 -10 -11 -22 -17 -26 -7 -5 -5 -8 5 -8 9 0 19 10 22 22 8 28 0 37 -10 12z"/>
    <path d="M471 3454 c0 -11 3 -14 6 -6 3 7 2 16 -1 19 -3 4 -6 -2 -5 -13z"/>
    <path d="M680 3400 c0 -22 5 -40 10 -40 6 0 10 18 10 40 0 22 -4 40 -10 40 -5 0 -10 -18 -10 -40z"/>
    <path d="M2375 3400 c4 -6 11 -8 16 -5 14 9 11 15 -7 15 -8 0 -12 -5 -9 -10z"/>
    <path d="M819 3395 c-8 -14 -5 -90 4 -92 18 -7 28 -2 20 10 -4 6 -10 30 -13 52 -3 22 -8 36 -11 30z"/>
    <path d="M261 3344 c0 -11 3 -14 6 -6 3 7 2 16 -1 19 -3 4 -6 -2 -5 -13z"/>
    <path d="M683 3316 c-6 -20 -7 -36 -2 -36 10 0 23 44 17 61 -2 6 -9 -5 -15 -25z"/>
    <path d="M870 3340 c-8 -5 -12 -12 -8 -15 10 -10 49 5 43 16 -8 11 -16 11 -35 -1z"/>
    <path d="M237 3306 c-4 -10 -5 -21 -2 -24 9 -9 17 6 13 25 -3 17 -4 17 -11 -1z"/>
    <path d="M1220 3317 c0 -2 16 -18 35 -36 40 -36 47 -27 10 13 -20 22 -45 34 -45 23z"/>
    <path d="M230 3250 c0 -11 2 -20 4 -20 2 0 6 9 9 20 3 11 1 20 -4 20 -5 0 -9 -9 -9 -20z"/>
    <path d="M2365 3200 c-3 -6 1 -7 9 -4 18 7 21 14 7 14 -6 0 -13 -4 -16 -10z"/>
    <path d="M551 3144 c0 -11 3 -14 6 -6 3 7 2 16 -1 19 -3 4 -6 -2 -5 -13z"/>
    <path d="M187 3108 c-8 -24 -15 -50 -15 -58 -2 -47 -12 -94 -22 -100 -7 -4 -9 -13 -6 -19 4 -6 2 -11 -3 -11 -6 0 -11 -9 -11 -20 0 -12 -13 -28 -31 -39 -19 -12 -26 -21 -19 -26 32 -20 96 70 105 150 2 22 6 51 9 65 16 87 18 100 14 100 -3 0 -12 -19 -21 -42z"/>
    <path d="M997 3133 c-3 -5 1 -14 9 -21 9 -8 14 -9 14 -2 0 6 6 8 13 4 8 -5 8 -2 -2 9 -14 18 -27 22 -34 10z"/>
    <path d="M601 3095 c19 -19 39 -35 45 -35 7 0 20 -7 29 -16 18 -19 45 -12 45 11 0 9 -4 14 -9 11 -9 -6 -104 42 -109 56 -2 4 -10 8 -19 8 -10 0 -3 -12 18 -35z"/>
    <path d="M991 3100 c0 -8 4 -24 8 -34 6 -15 10 -16 16 -7 4 7 3 16 -2 20 -6 3 -13 13 -16 21 -5 13 -5 13 -6 0z"/>
    <path d="M740 3089 c0 -5 5 -7 10 -4 6 3 10 8 10 11 0 2 -4 4 -10 4 -5 0 -10 -5 -10 -11z"/>
    <path d="M4171 3024 c0 -11 3 -14 6 -6 3 7 2 16 -1 19 -3 4 -6 -2 -5 -13z"/>
    <path d="M4203 3010 c-13 -16 -23 -33 -23 -39 0 -6 -7 -11 -15 -11 -8 0 -15 -5 -15 -11 0 -13 65 23 66 37 0 5 4 17 9 27 12 28 2 27 -22 -3z"/>
    <path d="M497 3004 c-4 -4 -7 -17 -7 -28 0 -19 1 -19 17 -3 12 11 14 20 7 27 -6 6 -13 7 -17 4z"/>
    <path d="M2180 2998 c0 -10 36 -29 43 -22 3 3 12 -3 19 -15 7 -12 20 -21 28 -21 28 0 40 -23 40 -77 0 -34 -7 -65 -20 -88 -11 -20 -20 -46 -20 -59 0 -30 -71 -140 -124 -191 -33 -32 -37 -40 -23 -43 41 -8 158 144 172 223 4 22 16 55 26 73 12 21 19 51 18 80 -2 76 -11 95 -50 107 -20 5 -34 15 -32 21 2 7 -12 13 -37 16 -22 2 -40 0 -40 -4z"/>
    <path d="M440 2990 c0 -5 5 -10 10 -10 6 0 10 5 10 10 0 6 -4 10 -10 10 -5 0 -10 -4 -10 -10z"/>
    <path d="M1000 2955 c0 -101 65 -203 239 -375 204 -202 240 -233 275 -236 17 -1 56 -6 87 -9 92 -12 211 10 384 69 6 2 13 4 18 4 4 1 24 13 44 26 20 14 40 23 45 20 11 -7 10 18 -2 36 -7 10 -13 11 -17 4 -17 -23 -81 -61 -123 -73 -25 -7 -63 -19 -85 -26 -100 -32 -138 -38 -233 -33 -53 3 -113 12 -132 20 -31 14 -94 67 -214 181 -21 20 -43 37 -48 37 -4 0 -8 7 -8 15 0 8 -7 15 -15 15 -8 0 -15 4 -15 8 0 5 -22 33 -50 63 -27 30 -57 69 -66 87 -8 18 -19 30 -23 27 -10 -6 -21 29 -21 68 0 15 -4 27 -10 27 -5 0 -10 10 -10 23 0 12 -5 29 -10 37 -7 12 -10 8 -10 -15z"/>
    <path d="M400 2959 c0 -4 -16 -10 -35 -13 -21 -4 -47 -19 -61 -36 -15 -16 -32 -26 -40 -23 -8 3 -14 0 -14 -6 0 -21 35 -11 90 24 30 19 67 35 82 35 15 0 28 4 28 9 0 5 8 11 18 13 9 3 -2 4 -25 4 -24 0 -43 -4 -43 -7z"/>
    <path d="M4121 2934 c0 -11 3 -14 6 -6 3 7 2 16 -1 19 -3 4 -6 -2 -5 -13z"/>
    <path d="M828 2893 c7 -3 16 -2 19 1 4 3 -2 6 -13 5 -11 0 -14 -3 -6 -6z"/>
    <path d="M2424 2878 c3 -13 6 -29 6 -37 0 -11 4 -9 14 4 10 14 11 25 5 37 -14 26 -33 22 -25 -4z"/>
    <path d="M2476 2881 c-3 -5 1 -11 9 -15 8 -3 15 -1 15 4 0 13 -18 22 -24 11z"/>
    <path d="M4058 2869 c-26 -13 -36 -24 -32 -34 4 -8 8 -15 10 -15 12 0 56 35 65 51 12 23 5 22 -43 -2z"/>
    <path d="M860 2870 c0 -5 5 -10 10 -10 6 0 10 5 10 10 0 6 -4 10 -10 10 -5 0 -10 -4 -10 -10z"/>
    <path d="M650 2850 c0 -5 5 -10 11 -10 5 0 7 5 4 10 -3 6 -8 10 -11 10 -2 0 -4 -4 -4 -10z"/>
    <path d="M3978 2826 c-24 -18 -48 -78 -48 -121 0 -19 -4 -35 -10 -35 -12 0 -13 -37 -1 -44 12 -8 33 43 36 91 3 41 29 93 46 93 5 0 9 7 9 15 0 18 -9 19 -32 1z"/>
    <path d="M0 2814 c0 -8 5 -12 10 -9 6 3 10 10 10 16 0 5 -4 9 -10 9 -5 0 -10 -7 -10 -16z"/>
    <path d="M38 2823 c7 -3 16 -2 19 1 4 3 -2 6 -13 5 -11 0 -14 -3 -6 -6z"/>
    <path d="M3301 2814 c0 -11 3 -14 6 -6 3 7 2 16 -1 19 -3 4 -6 -2 -5 -13z"/>
    <path d="M2570 2812 c0 -13 30 -52 41 -52 19 0 47 -38 37 -48 -8 -7 -6 -16 5 -26 18 -18 37 -21 37 -6 0 6 -4 10 -10 10 -5 0 -10 14 -10 31 0 22 -5 32 -20 36 -11 3 -20 12 -20 19 0 8 -6 14 -14 14 -8 0 -16 7 -20 15 -6 15 -26 21 -26 7z"/>
    <path d="M2464 2795 c-8 -20 4 -35 27 -35 21 0 25 20 7 38 -16 16 -27 15 -34 -3z"/>
    <path d="M2758 2773 c7 -3 16 -2 19 1 4 3 -2 6 -13 5 -11 0 -14 -3 -6 -6z"/>
    <path d="M240 2749 c0 -5 8 -9 18 -9 28 0 34 -11 14 -27 -16 -12 -16 -14 0 -23 9 -6 14 -18 11 -28 -2 -10 5 -29 16 -43 15 -18 20 -20 21 -8 0 9 -3 19 -7 22 -3 4 -7 30 -8 57 -1 28 -5 53 -8 56 -9 10 -57 12 -57 3z"/>
    <path d="M480 2739 c0 -5 5 -7 10 -4 6 3 10 8 10 11 0 2 -4 4 -10 4 -5 0 -10 -5 -10 -11z"/>
    <path d="M2536 2731 c-4 -7 -5 -15 -2 -18 9 -9 19 4 14 18 -4 11 -6 11 -12 0z"/>
    <path d="M3627 2733 c-16 -15 -5 -22 34 -20 28 1 45 -4 53 -15 8 -11 17 -14 26 -8 16 10 16 9 -20 33 -24 17 -81 23 -93 10z"/>
    <path d="M3087 2712 c-9 -10 -17 -23 -17 -28 0 -5 -9 -26 -20 -46 -25 -47 -56 -306 -64 -543 -1 -33 -6 -69 -11 -79 -5 -12 -5 -17 1 -14 5 4 8 -51 7 -134 -2 -126 0 -139 15 -136 12 3 16 11 12 28 -2 14 -4 79 -3 145 3 338 6 411 18 430 7 12 12 53 11 105 -1 61 4 95 16 121 10 20 20 51 23 68 8 45 37 75 65 66 18 -6 21 -3 18 12 -5 25 -50 29 -71 5z"/>
    <path d="M410 2710 c-4 -3 -12 -18 -15 -33 l-7 -28 36 18 c39 20 50 53 16 50 -12 -1 -25 -4 -30 -7z"/>
    <path d="M2407 2703 c-8 -33 -7 -84 2 -101 4 -9 11 -51 15 -92 3 -41 11 -79 17 -85 15 -14 2 144 -15 188 -7 18 -12 49 -10 70 3 39 -2 49 -9 20z"/>
    <path d="M2470 2706 c0 -17 27 -29 35 -16 4 6 3 15 0 20 -9 15 -35 12 -35 -4z"/>
    <path d="M995 2690 c3 -5 8 -10 11 -10 2 0 4 5 4 10 0 6 -5 10 -11 10 -5 0 -7 -4 -4 -10z"/>
    <path d="M2525 2680 c-3 -5 -3 -10 2 -11 4 0 -2 -4 -15 -10 -25 -10 -22 -23 10 -40 19 -10 20 -9 14 14 -3 14 -2 29 4 32 5 3 10 10 10 16 0 12 -17 12 -25 -1z"/>
    <path d="M3144 2648 c4 -18 9 -97 12 -174 2 -78 10 -213 18 -300 8 -88 11 -163 8 -168 -3 -5 -1 -7 4 -4 5 4 10 -48 11 -120 2 -98 6 -129 18 -141 14 -14 15 -5 9 89 -3 58 -12 191 -21 295 -8 105 -16 237 -18 295 -5 124 -14 241 -21 252 -13 21 -26 6 -20 -24z"/>
    <path d="M3650 2660 c0 -11 4 -20 9 -20 6 0 9 9 8 20 -1 11 -5 20 -9 20 -4 0 -8 -9 -8 -20z"/>
    <path d="M3230 2666 c0 -2 7 -9 15 -16 12 -10 15 -10 15 4 0 9 -7 16 -15 16 -8 0 -15 -2 -15 -4z"/>
    <path d="M3560 2652 c0 -10 -5 -23 -12 -30 -16 -16 -5 -24 14 -9 24 18 33 57 14 57 -9 0 -16 -8 -16 -18z"/>
    <path d="M3706 2655 c-3 -8 -3 -22 1 -31 4 -10 0 -20 -10 -26 -10 -5 -17 -21 -17 -35 0 -15 -6 -34 -14 -42 -7 -9 -21 -40 -31 -68 -11 -35 -22 -53 -33 -53 -12 0 -13 -3 -4 -12 7 -7 12 -34 12 -61 0 -53 16 -58 18 -5 0 17 5 41 10 53 5 11 22 56 37 100 15 44 36 104 46 134 23 65 22 61 5 61 -8 0 -16 -7 -20 -15z"/>
    <path d="M2677 2652 c-9 -2 -15 -8 -12 -13 8 -12 45 -12 45 0 0 13 -12 18 -33 13z"/>
    <path d="M3858 2646 c-15 -8 -29 -12 -32 -8 -3 3 -6 0 -6 -6 0 -7 7 -12 15 -12 8 0 15 4 15 10 0 5 10 9 21 7 12 -1 24 4 26 11 6 16 -6 15 -39 -2z"/>
    <path d="M2570 2640 c0 -5 5 -10 10 -10 6 0 10 5 10 10 0 6 -4 10 -10 10 -5 0 -10 -4 -10 -10z"/>
    <path d="M490 2621 c0 -20 27 -48 36 -38 9 9 -6 45 -21 51 -10 3 -15 -1 -15 -13z"/>
    <path d="M430 2605 c-10 -12 -9 -16 5 -21 17 -7 38 13 29 28 -8 12 -20 10 -34 -7z"/>
    <path d="M2682 2613 c-6 -2 -10 -8 -7 -13 6 -10 45 -1 45 11 0 10 -17 11 -38 2z"/>
    <path d="M590 2596 c0 -7 6 -19 14 -25 11 -9 15 -8 20 5 3 9 4 20 0 25 -8 14 -34 11 -34 -5z"/>
    <path d="M3890 2595 c-7 -8 -8 -15 -2 -15 5 0 15 7 22 15 7 8 8 15 2 15 -5 0 -15 -7 -22 -15z"/>
    <path d="M2555 2580 c-8 -14 13 -40 32 -40 20 0 12 44 -9 48 -9 2 -19 -2 -23 -8z"/>
    <path d="M2687 2574 c-4 -4 -4 -10 -2 -14 6 -10 55 0 55 11 0 10 -43 12 -53 3z"/>
    <path d="M3519 2575 c-1 -3 -2 -9 -3 -14 0 -5 -4 -13 -8 -17 -5 -4 -8 -14 -8 -21 0 -8 -9 -33 -20 -55 -27 -56 -27 -77 0 -53 11 10 18 21 16 24 -3 4 4 24 14 46 10 21 16 45 13 52 -3 7 0 13 6 13 6 0 11 7 11 15 0 14 -18 22 -21 10z"/>
    <path d="M4112 2556 c7 -8 15 -12 17 -11 5 6 -10 25 -20 25 -5 0 -4 -6 3 -14z"/>
    <path d="M533 2544 c-8 -22 15 -44 26 -25 10 16 4 41 -10 41 -5 0 -12 -7 -16 -16z"/>
    <path d="M2085 2550 c-3 -5 -1 -10 4 -10 6 0 11 5 11 10 0 6 -2 10 -4 10 -3 0 -8 -4 -11 -10z"/>
    <path d="M2346 2493 c4 -38 11 -76 15 -85 5 -9 9 -33 9 -52 0 -20 4 -44 10 -54 5 -9 23 -69 40 -132 18 -63 41 -146 53 -185 18 -59 22 -65 25 -40 2 16 -3 52 -12 80 -25 80 -53 185 -66 245 -7 30 -18 75 -25 100 -8 25 -16 68 -20 95 -9 76 -14 95 -25 95 -7 0 -8 -24 -4 -67z"/>
    <path d="M3797 2553 c-15 -14 -6 -24 16 -18 35 11 44 25 16 25 -14 0 -29 -3 -32 -7z"/>
    <path d="M957 2537 c-6 -18 4 -47 15 -47 6 0 7 7 4 16 -3 8 -2 12 4 9 6 -3 10 0 10 8 0 19 -27 30 -33 14z"/>
    <path d="M3577 2544 c-12 -13 3 -21 28 -17 13 3 22 9 19 14 -6 10 -38 12 -47 3z"/>
    <path d="M475 2530 c-11 -5 -18 -9 -15 -10 27 -8 40 -6 40 6 0 8 -1 14 -2 13 -2 0 -12 -4 -23 -9z"/>
    <path d="M2705 2530 c-4 -6 7 -10 24 -10 17 0 31 5 31 10 0 6 -11 10 -24 10 -14 0 -28 -4 -31 -10z"/>
    <path d="M3862 2459 c-2 -45 -9 -98 -17 -118 -16 -40 -40 -157 -51 -241 -4 -30 -10 -60 -15 -66 -5 -5 -10 -26 -13 -45 -3 -19 -11 -55 -19 -81 -9 -30 -11 -50 -5 -56 6 -6 6 -12 -1 -16 -6 -4 -11 -21 -11 -37 0 -17 -4 -38 -9 -47 -5 -9 -11 -30 -14 -47 -13 -79 -20 -111 -28 -121 -9 -11 1 -43 38 -123 23 -50 118 -155 133 -146 4 2 -15 28 -42 56 -71 73 -73 82 -31 159 20 36 45 76 57 90 27 33 48 70 39 70 -21 -1 -106 -120 -117 -163 -4 -19 -13 -27 -28 -27 -20 0 -20 4 -15 73 6 76 6 77 27 147 7 25 14 54 16 65 1 11 8 52 14 90 7 39 14 87 17 108 3 20 9 40 14 43 5 3 9 20 9 39 0 19 4 45 10 59 5 15 14 52 20 84 18 105 30 155 38 166 5 6 10 31 11 55 2 24 7 54 11 66 5 14 4 27 -3 34 -25 25 -32 9 -35 -70z"/>
    <path d="M3736 2511 c-1 -3 -3 -19 -4 -34 -1 -15 -7 -38 -14 -50 -6 -12 -15 -38 -19 -57 -4 -19 -12 -48 -18 -65 -6 -16 -22 -70 -37 -120 -15 -49 -33 -110 -40 -134 -9 -29 -11 -48 -4 -55 11 -11 12 -7 30 79 7 33 18 69 24 80 7 11 18 40 26 65 7 25 17 49 22 55 4 5 8 17 8 27 0 10 5 18 10 18 6 0 9 3 8 8 -5 19 14 112 22 107 6 -4 10 5 10 19 0 15 8 30 20 36 11 6 20 15 20 20 0 9 -59 11 -64 1z"/>
    <path d="M4065 2509 c-4 -6 -5 -12 -2 -15 2 -3 7 2 10 11 7 17 1 20 -8 4z"/>
    <path d="M3817 2499 c7 -7 15 -10 18 -7 3 3 -2 9 -12 12 -14 6 -15 5 -6 -5z"/>
    <path d="M4157 2493 c3 -7 9 -13 14 -13 5 0 9 6 9 13 0 8 -6 14 -14 14 -8 0 -12 -6 -9 -14z"/>
    <path d="M1090 2490 c0 -5 5 -10 11 -10 5 0 7 5 4 10 -3 6 -8 10 -11 10 -2 0 -4 -4 -4 -10z"/>
    <path d="M2570 2480 c0 -13 5 -20 13 -17 6 2 12 10 12 17 0 7 -6 15 -12 18 -8 2 -13 -5 -13 -18z"/>
    <path d="M2620 2480 c0 -11 6 -20 14 -20 9 0 12 7 9 20 -3 11 -9 20 -14 20 -5 0 -9 -9 -9 -20z"/>
    <path d="M2720 2490 c0 -5 11 -10 25 -10 14 0 25 5 25 10 0 6 -11 10 -25 10 -14 0 -25 -4 -25 -10z"/>
    <path d="M796 2448 c4 -18 13 -46 21 -63 8 -16 25 -58 38 -93 30 -78 105 -173 105 -132 0 6 -8 18 -17 28 -17 17 -88 163 -121 250 -19 50 -34 56 -26 10z"/>
    <path d="M968 2457 c-3 -15 -1 -24 3 -21 5 3 10 -4 10 -15 2 -34 4 -39 13 -48 10 -10 -1 73 -13 95 -6 11 -9 8 -13 -11z"/>
    <path d="M1035 2461 c-8 -14 5 -62 16 -55 12 7 12 51 0 59 -5 3 -12 1 -16 -4z"/>
    <path d="M2753 2463 c-7 -3 -13 -9 -13 -14 0 -12 37 -12 44 0 7 11 -14 20 -31 14z"/>
    <path d="M530 2445 c-18 -21 21 -39 46 -20 10 7 15 17 11 21 -14 14 -45 14 -57 -1z"/>
    <path d="M4100 2450 c0 -5 5 -10 11 -10 5 0 7 5 4 10 -3 6 -8 10 -11 10 -2 0 -4 -4 -4 -10z"/>
    <path d="M872 2438 c3 -7 13 -39 23 -70 10 -32 21 -55 25 -53 15 9 -16 121 -36 129 -11 4 -15 2 -12 -6z"/>
    <path d="M1170 2444 c0 -3 7 -12 15 -20 13 -13 15 -13 15 -1 0 8 -7 17 -15 21 -8 3 -15 3 -15 0z"/>
    <path d="M2606 2441 c-4 -5 -2 -12 3 -15 5 -4 12 -2 15 3 4 5 2 12 -3 15 -5 4 -12 2 -15 -3z"/>
    <path d="M2091 2421 c-6 -10 -11 -34 -12 -52 -2 -19 -5 -38 -8 -44 -10 -17 -27 -157 -23 -186 9 -60 22 -14 22 77 0 72 4 99 15 110 8 9 15 27 16 42 0 15 2 37 5 50 5 27 -2 29 -15 3z"/>
    <path d="M2570 2412 c0 -13 39 -46 46 -39 9 9 -16 47 -31 47 -8 0 -15 -4 -15 -8z"/>
    <path d="M2645 2410 c-8 -13 4 -32 16 -25 12 8 12 35 0 35 -6 0 -13 -4 -16 -10z"/>
    <path d="M2736 2411 c-3 -5 1 -11 9 -15 18 -6 45 2 45 15 0 12 -47 12 -54 0z"/>
    <path d="M2234 2367 c3 -29 14 -56 27 -70 20 -20 21 -20 14 -2 -4 11 -12 38 -18 60 -15 61 -31 69 -23 12z"/>
    <path d="M2463 2367 c6 -23 14 -45 20 -48 5 -3 8 -10 7 -15 -5 -23 12 -124 21 -124 14 0 0 136 -17 169 -8 14 -14 31 -14 37 0 7 -6 14 -14 17 -11 4 -12 -2 -3 -36z"/>
    <path d="M3435 2378 c-2 -7 -7 -24 -9 -38 -3 -14 -14 -50 -26 -80 -33 -90 -82 -271 -87 -325 -3 -27 -12 -58 -20 -67 -12 -14 -13 -23 -4 -48 8 -25 7 -38 -4 -60 -12 -24 -12 -29 -1 -33 18 -7 26 1 26 25 0 15 8 18 53 17 64 -1 133 -21 129 -38 -5 -22 9 -51 24 -51 10 0 14 10 13 33 -1 17 6 49 15 69 9 21 16 41 15 45 -4 26 4 52 21 71 21 23 27 62 9 62 -6 0 -8 9 -4 20 3 11 2 20 -3 20 -17 0 -20 -50 -4 -59 13 -7 12 -10 -7 -16 -11 -3 -19 -10 -16 -15 3 -5 1 -11 -5 -15 -5 -3 -10 -17 -10 -31 0 -26 -9 -29 -90 -24 -44 2 -107 29 -120 51 -8 12 8 87 22 106 5 6 6 22 3 36 -5 17 -2 26 10 31 10 3 15 12 12 20 -3 8 5 45 18 82 13 37 21 72 18 77 -3 4 2 16 10 25 15 17 34 122 23 122 -4 0 -9 -6 -11 -12z m-76 -537 c23 -20 106 -35 145 -25 32 8 40 -9 16 -31 -18 -16 -26 -17 -82 -5 -103 20 -149 44 -133 70 9 15 29 12 54 -9z"/>
    <path d="M2758 2375 c-9 -10 4 -55 16 -55 8 0 11 11 8 30 -4 28 -12 37 -24 25z"/>
    <path d="M1275 2360 c-3 -6 1 -7 9 -4 18 7 21 14 7 14 -6 0 -13 -4 -16 -10z"/>
    <path d="M3095 2360 c-8 -13 9 -20 24 -11 10 6 9 10 -3 14 -8 3 -18 2 -21 -3z"/>
    <path d="M610 2353 c0 -5 5 -15 10 -23 7 -11 12 -12 21 -3 6 6 8 16 5 22 -8 12 -36 15 -36 4z"/>
    <path d="M2162 2353 c2 -5 12 -25 21 -45 10 -21 22 -38 27 -38 13 0 13 1 -5 43 -8 19 -22 37 -30 41 -9 3 -15 3 -13 -1z"/>
    <path d="M2317 2315 c3 -27 14 -72 24 -98 11 -26 19 -55 19 -63 0 -9 9 -27 20 -41 21 -27 28 -16 10 15 -5 9 -18 51 -29 92 -10 41 -26 91 -34 110 l-16 35 6 -50z"/>
    <path d="M562 2333 c5 -25 28 -28 28 -4 0 12 -6 21 -16 21 -9 0 -14 -7 -12 -17z"/>
    <path d="M724 2336 c-4 -11 -1 -21 7 -27 17 -11 26 18 10 34 -7 7 -12 5 -17 -7z"/>
    <path d="M1223 2324 c6 -39 27 -82 42 -88 17 -6 8 29 -11 45 -8 6 -14 22 -14 35 0 12 -5 26 -11 29 -7 5 -9 -3 -6 -21z"/>
    <path d="M1328 2343 c6 -2 18 -2 25 0 6 3 1 5 -13 5 -14 0 -19 -2 -12 -5z"/>
    <path d="M1023 2325 c3 -11 9 -32 13 -47 3 -16 10 -25 15 -23 4 3 4 16 -1 29 -5 13 -7 26 -4 29 2 2 -3 10 -12 18 -15 12 -16 12 -11 -6z"/>
    <path d="M2640 2326 c0 -19 29 -48 41 -41 15 10 10 34 -10 45 -26 13 -31 13 -31 -4z"/>
    <path d="M3500 2332 c0 -5 7 -17 15 -28 14 -18 14 -18 15 9 0 17 -5 27 -15 27 -8 0 -15 -4 -15 -8z"/>
    <path d="M1171 2310 c0 -8 6 -24 14 -34 15 -19 15 -19 15 3 0 12 -4 20 -9 16 -5 -3 -12 3 -14 12 -3 13 -5 13 -6 3z"/>
    <path d="M4210 2305 c0 -8 5 -15 10 -15 6 0 10 7 10 15 0 8 -4 15 -10 15 -5 0 -10 -7 -10 -15z"/>
    <path d="M620 2295 c0 -8 -6 -15 -14 -15 -24 0 -30 -22 -11 -36 22 -17 38 -8 30 16 -3 10 -1 21 5 25 13 8 13 25 0 25 -5 0 -10 -7 -10 -15z"/>
    <path d="M811 2294 c0 -11 3 -14 6 -6 3 7 2 16 -1 19 -3 4 -6 -2 -5 -13z"/>
    <path d="M1510 2291 c14 -11 41 -33 60 -49 19 -17 39 -28 44 -24 5 3 0 10 -12 15 -12 6 -22 15 -22 21 0 6 -15 21 -33 34 -41 27 -73 30 -37 3z"/>
    <path d="M2101 2294 c0 -11 3 -14 6 -6 3 7 2 16 -1 19 -3 4 -6 -2 -5 -13z"/>
    <path d="M2814 2287 c3 -10 6 -34 6 -53 0 -19 4 -34 9 -34 12 0 2 82 -12 95 -7 7 -8 4 -3 -8z"/>
    <path d="M480 2278 c0 -8 7 -21 15 -28 19 -16 19 -1 0 24 -12 16 -15 17 -15 4z"/>
    <path d="M930 2286 c0 -2 7 -9 15 -16 13 -11 14 -10 9 4 -5 14 -24 23 -24 12z"/>
    <path d="M1091 2280 c0 -8 4 -22 9 -30 12 -18 12 -2 0 25 -6 13 -9 15 -9 5z"/>
    <path d="M1450 2282 c0 -24 23 -61 41 -65 12 -3 17 -11 13 -20 -3 -8 1 -36 9 -63 8 -27 20 -69 27 -93 8 -29 15 -40 22 -33 7 7 3 36 -11 93 -12 45 -21 96 -21 111 0 18 -6 31 -17 35 -10 3 -28 15 -40 26 -13 11 -23 15 -23 9z"/>
    <path d="M654 2269 c-10 -17 13 -36 27 -22 12 12 4 33 -11 33 -5 0 -12 -5 -16 -11z"/>
    <path d="M4170 2273 c1 -18 18 -35 24 -24 4 6 4 16 1 21 -7 12 -25 13 -25 3z"/>
    <path d="M2117 2263 c-11 -10 -8 -45 2 -39 12 8 22 -39 25 -107 1 -29 11 -72 23 -97 l21 -45 1 42 c1 23 -5 48 -13 55 -8 9 -12 30 -10 57 3 42 -22 141 -36 141 -4 0 -10 -3 -13 -7z"/>
    <path d="M3606 2255 c-3 -8 -1 -15 4 -15 6 0 10 7 10 15 0 8 -2 15 -4 15 -2 0 -6 -7 -10 -15z"/>
    <path d="M399 2245 c0 -11 -2 -27 -4 -36 -1 -9 1 -23 6 -30 5 -8 9 -9 10 -4 4 48 4 68 -3 78 -5 8 -8 5 -9 -8z"/>
    <path d="M2216 2251 c-3 -5 1 -12 10 -15 8 -3 13 -9 10 -14 -2 -4 -1 -14 5 -22 7 -12 9 -10 9 8 0 26 -25 58 -34 43z"/>
    <path d="M2690 2238 c0 -14 6 -31 13 -37 19 -15 19 17 1 44 -13 19 -14 18 -14 -7z"/>
    <path d="M1198 2238 c-5 -13 32 -77 45 -78 13 0 7 24 -13 58 -22 35 -26 38 -32 20z"/>
    <path d="M2640 2215 c0 -8 5 -15 10 -15 6 0 10 7 10 15 0 8 -4 15 -10 15 -5 0 -10 -7 -10 -15z"/>
    <path d="M1630 2200 c0 -5 7 -10 15 -10 8 0 15 5 15 10 0 6 -7 10 -15 10 -8 0 -15 -4 -15 -10z"/>
    <path d="M1960 2201 c0 -5 5 -13 10 -16 6 -3 10 -2 10 4 0 5 -4 13 -10 16 -5 3 -10 2 -10 -4z"/>
    <path d="M2560 2201 c0 -6 4 -13 10 -16 6 -3 7 1 4 9 -7 18 -14 21 -14 7z"/>
    <path d="M3587 2197 c-3 -8 -1 -20 4 -28 5 -9 9 -9 9 -2 0 6 3 18 6 27 3 9 2 16 -4 16 -5 0 -12 -6 -15 -13z"/>
    <path d="M653 2185 c-3 -9 -3 -19 1 -22 7 -7 36 16 36 28 0 15 -30 10 -37 -6z"/>
    <path d="M1570 2180 c0 -11 4 -20 8 -20 4 0 8 9 9 20 1 11 -2 20 -8 20 -5 0 -9 -9 -9 -20z"/>
    <path d="M3900 2189 c0 -5 5 -7 10 -4 6 3 10 8 10 11 0 2 -4 4 -10 4 -5 0 -10 -5 -10 -11z"/>
    <path d="M1666 2182 c-3 -6 -1 -14 5 -17 14 -9 20 -2 10 14 -6 8 -11 9 -15 3z"/>
    <path d="M1800 2176 c0 -8 5 -18 10 -21 6 -3 10 1 10 9 0 8 -4 18 -10 21 -5 3 -10 -1 -10 -9z"/>
    <path d="M2676 2183 c-11 -11 -6 -23 9 -23 8 0 15 4 15 9 0 13 -16 22 -24 14z"/>
    <path d="M2827 2174 c-9 -10 2 -24 18 -24 9 0 12 6 9 15 -6 16 -17 19 -27 9z"/>
    <path d="M1020 2124 c0 -19 4 -33 8 -30 8 5 4 66 -4 66 -2 0 -4 -16 -4 -36z"/>
    <path d="M1622 2125 c1 -20 -2 -39 -9 -43 -8 -5 -7 -10 2 -19 10 -9 14 -7 19 10 9 36 7 87 -5 87 -6 0 -9 -15 -7 -35z"/>
    <path d="M1701 2146 c5 -24 39 -31 39 -8 0 8 -3 12 -7 9 -3 -4 -13 -1 -21 5 -12 10 -14 9 -11 -6z"/>
    <path d="M1925 2138 c4 -13 19 -45 33 -73 14 -27 24 -62 23 -77 -1 -28 12 -37 24 -17 10 15 -58 189 -73 189 -9 0 -11 -7 -7 -22z"/>
    <path d="M2640 2147 c0 -14 39 -41 48 -33 5 6 -32 46 -43 46 -3 0 -5 -6 -5 -13z"/>
    <path d="M2717 2141 c-6 -26 8 -49 17 -26 9 24 8 45 -3 45 -5 0 -11 -9 -14 -19z"/>
    <path d="M3571 2144 c0 -11 3 -14 6 -6 3 7 2 16 -1 19 -3 4 -6 -2 -5 -13z"/>
    <path d="M1160 2130 c0 -5 5 -10 10 -10 6 0 10 5 10 10 0 6 -4 10 -10 10 -5 0 -10 -4 -10 -10z"/>
    <path d="M1250 2125 c0 -11 11 -37 25 -57 14 -20 25 -42 25 -48 0 -6 6 -21 14 -33 8 -12 19 -45 26 -74 6 -29 18 -57 26 -64 7 -6 11 -15 8 -20 -3 -5 0 -9 6 -9 8 0 9 7 5 18 -12 29 -36 116 -39 137 -1 11 -14 39 -29 62 -15 24 -27 46 -27 50 0 5 -9 19 -20 33 -18 23 -20 23 -20 5z"/>
    <path d="M1060 2127 c0 -7 43 -124 51 -139 20 -36 27 -16 12 30 -21 62 -46 112 -55 112 -5 0 -8 -1 -8 -3z"/>
    <path d="M2836 2121 c-3 -5 1 -11 9 -15 15 -6 29 7 18 18 -9 9 -21 8 -27 -3z"/>
    <path d="M3410 2121 c0 -5 7 -12 16 -15 21 -8 65 4 58 15 -7 12 -74 12 -74 0z"/>
    <path d="M3035 2110 c-3 -5 3 -10 14 -10 11 0 23 5 26 10 3 6 -3 10 -14 10 -11 0 -23 -4 -26 -10z"/>
    <path d="M3090 2110 c0 -5 5 -10 11 -10 5 0 7 5 4 10 -3 6 -8 10 -11 10 -2 0 -4 -4 -4 -10z"/>
    <path d="M684 2096 c-6 -17 2 -36 17 -36 12 0 12 37 -1 45 -6 3 -13 -1 -16 -9z"/>
    <path d="M2920 2090 c0 -11 4 -20 9 -20 5 0 7 9 4 20 -3 11 -7 20 -9 20 -2 0 -4 -9 -4 -20z"/>
    <path d="M580 2086 c0 -7 7 -19 15 -26 8 -7 15 -19 15 -26 0 -8 5 -14 11 -14 5 0 8 -4 5 -8 -3 -5 4 -23 15 -40 10 -18 19 -36 19 -41 0 -17 58 -112 63 -104 7 11 -30 86 -44 91 -5 2 -9 12 -9 23 0 10 -4 19 -10 19 -5 0 -12 16 -16 35 -3 19 -10 35 -14 35 -5 0 -14 16 -20 35 -11 35 -30 48 -30 21z"/>
    <path d="M1130 2096 c0 -8 41 -96 45 -96 11 0 0 67 -13 83 -13 15 -32 23 -32 13z"/>
    <path d="M2550 2078 c0 -16 5 -28 10 -28 13 0 13 20 0 40 -8 12 -10 9 -10 -12z"/>
    <path d="M405 2080 c3 -5 8 -10 11 -10 2 0 4 5 4 10 0 6 -5 10 -11 10 -5 0 -7 -4 -4 -10z"/>
    <path d="M1197 2083 c-3 -5 -2 -15 4 -23 5 -8 9 -30 9 -48 0 -33 27 -98 37 -89 7 7 -17 116 -32 146 -7 13 -15 20 -18 14z"/>
    <path d="M1711 2074 c0 -11 3 -14 6 -6 3 7 2 16 -1 19 -3 4 -6 -2 -5 -13z"/>
    <path d="M840 2052 c0 -18 6 -32 16 -36 23 -9 26 -3 15 27 -15 38 -31 43 -31 9z"/>
    <path d="M987 2028 c8 -29 17 -55 19 -57 9 -10 3 60 -8 84 -20 44 -27 27 -11 -27z"/>
    <path d="M1032 2065 c0 -11 4 -31 8 -45 l8 -25 1 27 c1 14 4 35 7 45 4 13 3 15 -4 4 -8 -11 -10 -11 -15 0 -3 9 -5 6 -5 -6z"/>
    <path d="M2390 2070 c0 -5 5 -12 10 -15 6 -4 9 -12 8 -18 -4 -19 34 -127 44 -127 6 0 8 6 6 13 -3 6 -13 42 -24 79 -10 37 -24 70 -31 73 -7 2 -13 0 -13 -5z"/>
    <path d="M2842 2068 c7 -19 38 -22 38 -4 0 10 -9 16 -21 16 -12 0 -19 -5 -17 -12z"/>
    <path d="M4153 2065 c-10 -11 -9 -15 8 -20 20 -7 49 9 49 26 0 14 -44 10 -57 -6z"/>
    <path d="M1870 2046 c0 -9 5 -16 10 -16 6 0 10 4 10 9 0 6 -4 13 -10 16 -5 3 -10 -1 -10 -9z"/>
    <path d="M2077 2053 c-8 -13 2 -71 14 -79 10 -6 10 29 0 66 -4 15 -10 20 -14 13z"/>
    <path d="M2700 2043 c0 -10 9 -24 21 -31 19 -12 20 -11 17 15 -3 32 -38 47 -38 16z"/>
    <path d="M3054 2048 c-3 -4 8 -8 25 -8 16 0 33 5 36 10 4 7 -6 10 -25 8 -17 -1 -34 -6 -36 -10z"/>
    <path d="M3432 2039 c2 -7 15 -14 28 -16 27 -4 25 -1 -9 17 -19 9 -22 9 -19 -1z"/>
    <path d="M714 2016 c3 -12 6 -27 6 -34 0 -7 5 -10 10 -7 17 10 12 62 -6 62 -11 0 -14 -7 -10 -21z"/>
    <path d="M4075 2006 c-28 -26 -36 -39 -30 -53 6 -15 8 -15 13 -3 7 22 63 70 74 64 4 -3 6 -10 3 -15 -4 -5 1 -9 9 -9 9 0 16 2 16 5 0 6 -38 45 -44 45 -2 0 -20 -15 -41 -34z"/>
    <path d="M2850 2020 c0 -5 9 -10 20 -10 11 0 20 5 20 10 0 6 -9 10 -20 10 -11 0 -20 -4 -20 -10z"/>
    <path d="M770 2000 c0 -11 7 -20 15 -20 8 0 15 9 15 20 0 11 -7 20 -15 20 -8 0 -15 -9 -15 -20z"/>
    <path d="M1730 2011 c0 -6 4 -13 10 -16 6 -3 7 1 4 9 -7 18 -14 21 -14 7z"/>
    <path d="M1777 1999 c-7 -29 16 -102 33 -107 8 -3 10 0 5 8 -4 7 -10 31 -12 53 -2 21 -7 46 -12 54 -7 13 -9 11 -14 -8z"/>
    <path d="M1880 2008 c0 -7 5 -20 10 -28 8 -12 10 -11 10 7 0 12 -4 25 -10 28 -5 3 -10 0 -10 -7z"/>
    <path d="M4200 2013 c0 -6 -8 -14 -17 -16 -17 -4 -17 -5 0 -6 9 0 17 -7 17 -13 0 -7 5 -5 11 5 8 14 8 22 0 30 -8 8 -11 8 -11 0z"/>
    <path d="M1682 1990 c0 -14 2 -19 5 -12 2 6 2 18 0 25 -3 6 -5 1 -5 -13z"/>
    <path d="M403 1974 c-3 -8 -2 -19 4 -25 5 -5 9 1 11 16 2 28 -6 33 -15 9z"/>
    <path d="M1387 1983 c-4 -3 -7 -13 -7 -22 1 -13 3 -13 11 2 11 19 8 33 -4 20z"/>
    <path d="M1470 1980 c0 -5 5 -10 10 -10 6 0 10 5 10 10 0 6 -4 10 -10 10 -5 0 -10 -4 -10 -10z"/>
    <path d="M2866 1981 c-3 -5 1 -12 10 -15 20 -8 29 -1 19 13 -8 13 -22 14 -29 2z"/>
    <path d="M3271 1974 c0 -11 3 -14 6 -6 3 7 2 16 -1 19 -3 4 -6 -2 -5 -13z"/>
    <path d="M3944 1965 c11 -8 22 -12 25 -9 6 6 -19 24 -34 24 -5 -1 -1 -7 9 -15z"/>
    <path d="M940 1926 c0 -34 4 -46 13 -43 15 5 13 65 -2 80 -8 8 -11 -2 -11 -37z"/>
    <path d="M1741 1954 c0 -11 3 -14 6 -6 3 7 2 16 -1 19 -3 4 -6 -2 -5 -13z"/>
    <path d="M2196 1955 c4 -8 8 -15 10 -15 2 0 4 7 4 15 0 8 -4 15 -10 15 -5 0 -7 -7 -4 -15z"/>
    <path d="M2568 1907 c2 -34 10 -72 18 -84 8 -12 14 -31 14 -43 0 -11 5 -20 11 -20 5 0 7 -5 3 -12 -4 -6 -3 -8 3 -5 12 8 5 54 -13 82 -7 11 -16 46 -19 78 -10 78 -22 81 -17 4z"/>
    <path d="M2747 1954 c-8 -8 3 -34 14 -34 11 0 12 27 0 34 -4 3 -11 3 -14 0z"/>
    <path d="M3646 1951 c-6 -10 63 -26 71 -17 3 3 -6 10 -21 16 -33 12 -43 13 -50 1z"/>
    <path d="M4172 1945 c-7 -8 -11 -18 -10 -22 3 -12 -33 -83 -43 -83 -5 0 -9 -10 -9 -22 -1 -57 -50 -70 -97 -27 -29 28 -29 40 2 69 24 23 34 60 16 60 -11 0 -44 -50 -38 -56 3 -3 -5 -15 -17 -28 -42 -45 -90 -115 -83 -122 5 -6 52 47 60 69 9 24 34 21 63 -8 14 -14 34 -25 45 -25 18 0 19 -2 4 -30 -8 -16 -15 -35 -15 -41 0 -7 -7 -20 -15 -29 -9 -10 -17 -26 -19 -36 -3 -11 -9 -32 -15 -48 -11 -28 -12 -28 -31 -11 -22 20 -24 14 -11 -32 7 -24 6 -35 -5 -44 -8 -6 -14 -20 -14 -30 0 -10 -4 -20 -10 -24 -5 -3 -7 -12 -4 -20 4 -9 -1 -18 -11 -21 -9 -4 -14 -13 -11 -20 3 -8 1 -14 -4 -14 -6 0 -10 -9 -10 -20 0 -11 -7 -20 -16 -20 -11 0 -14 -6 -9 -20 4 -12 0 -31 -8 -44 -10 -14 -12 -28 -7 -37 11 -17 12 -16 34 51 10 30 23 59 27 64 5 6 9 20 9 32 0 12 7 24 14 27 12 5 39 75 38 97 0 3 7 13 15 23 9 9 12 17 8 17 -4 0 -1 8 7 18 9 9 19 27 22 40 4 12 12 22 17 22 5 0 9 7 9 15 0 17 61 138 73 143 4 2 7 15 7 28 0 13 5 24 10 24 6 0 10 6 10 13 0 6 11 34 25 61 33 66 32 100 -3 61z"/>
    <path d="M1640 1916 c0 -38 16 -57 26 -32 8 21 -3 66 -16 66 -6 0 -10 -15 -10 -34z"/>
    <path d="M1960 1935 c7 -8 9 -15 4 -15 -5 0 -2 -4 6 -10 9 -6 15 -25 15 -54 0 -43 14 -67 16 -28 1 9 3 31 5 48 2 20 -3 39 -15 53 -22 25 -52 31 -31 6z"/>
    <path d="M2690 1935 c0 -8 7 -15 15 -15 8 0 15 7 15 15 0 8 -7 15 -15 15 -8 0 -15 -7 -15 -15z"/>
    <path d="M792 1927 c-10 -11 -9 -17 2 -26 18 -15 31 2 18 25 -7 13 -10 13 -20 1z"/>
    <path d="M3892 1915 c0 -16 2 -22 5 -12 2 9 2 23 0 30 -3 6 -5 -1 -5 -18z"/>
    <path d="M4106 1931 c-3 -5 0 -11 8 -14 15 -6 26 1 26 15 0 11 -27 10 -34 -1z"/>
    <path d="M1596 1900 c8 -43 14 -51 14 -19 0 13 -5 31 -10 39 -7 11 -8 5 -4 -20z"/>
    <path d="M1740 1916 c0 -8 6 -16 14 -19 10 -4 12 0 9 14 -6 22 -23 26 -23 5z"/>
    <path d="M1930 1900 c0 -5 5 -10 11 -10 5 0 7 5 4 10 -3 6 -8 10 -11 10 -2 0 -4 -4 -4 -10z"/>
    <path d="M2915 1900 c-4 -6 -11 -8 -16 -5 -5 4 -9 1 -9 -4 0 -6 9 -11 20 -11 11 0 20 7 20 15 0 17 -6 19 -15 5z"/>
    <path d="M3950 1901 c0 -5 5 -13 10 -16 6 -3 10 -2 10 4 0 5 -4 13 -10 16 -5 3 -10 2 -10 -4z"/>
    <path d="M2630 1886 c0 -8 5 -18 10 -21 6 -3 10 1 10 9 0 8 -4 18 -10 21 -5 3 -10 -1 -10 -9z"/>
    <path d="M2447 1883 c-7 -11 10 -40 18 -31 4 4 3 14 -3 24 -5 9 -12 12 -15 7z"/>
    <path d="M3645 1880 c-3 -5 3 -10 14 -10 12 0 21 5 21 10 0 6 -6 10 -14 10 -8 0 -18 -4 -21 -10z"/>
    <path d="M3690 1874 c0 -8 5 -12 10 -9 6 4 8 11 5 16 -9 14 -15 11 -15 -7z"/>
    <path d="M1552 1860 c0 -14 2 -19 5 -12 2 6 2 18 0 25 -3 6 -5 1 -5 -13z"/>
    <path d="M1750 1868 c0 -9 5 -20 10 -23 13 -8 13 5 0 25 -8 13 -10 13 -10 -2z"/>
    <path d="M1940 1861 c0 -25 6 -27 13 -6 4 8 2 17 -3 20 -6 4 -10 -3 -10 -14z"/>
    <path d="M2157 1863 c-21 -20 12 -123 39 -123 6 0 17 -15 24 -32 6 -18 18 -48 26 -66 8 -18 14 -42 14 -52 0 -11 4 -20 9 -20 12 0 24 52 14 59 -15 11 -35 59 -29 69 3 6 1 14 -5 17 -6 4 -8 19 -5 34 5 17 4 21 -2 12 -14 -20 -52 4 -53 34 -1 14 -2 31 -3 38 -1 18 54 10 86 -14 15 -10 33 -19 41 -19 8 0 30 -16 50 -35 36 -35 57 -44 57 -24 0 15 -20 33 -78 69 -28 17 -56 29 -61 25 -6 -3 -19 3 -31 15 -19 19 -79 28 -93 13z"/>
    <path d="M4046 1848 c-10 -39 -6 -44 13 -18 19 23 19 40 2 40 -5 0 -11 -10 -15 -22z"/>
    <path d="M1066 1843 c-6 -14 -5 -15 5 -6 7 7 10 15 7 18 -3 3 -9 -2 -12 -12z"/>
    <path d="M1805 1847 c-4 -10 -1 -31 8 -50 15 -31 19 -70 20 -210 1 -50 5 -66 14 -63 7 3 12 2 12 -2 -4 -27 3 -62 11 -57 6 3 10 -1 10 -10 0 -9 -5 -13 -11 -9 -7 4 -9 -10 -4 -50 5 -40 4 -61 -5 -71 -10 -12 -10 -19 -2 -27 9 -9 12 -8 12 5 0 32 18 17 40 -35 13 -29 22 -68 21 -85 -1 -18 3 -33 9 -33 16 0 12 42 -10 112 -19 60 -25 101 -34 214 -4 58 -11 74 -32 74 -8 0 -14 5 -14 11 0 5 4 8 9 5 12 -8 24 26 13 33 -8 6 -15 43 -29 161 -3 25 -11 59 -18 75 -11 25 -14 27 -20 12z"/>
    <path d="M2087 1853 c-4 -3 -7 -11 -7 -17 0 -6 5 -5 12 2 6 6 9 14 7 17 -3 3 -9 2 -12 -2z"/>
    <path d="M813 1835 c-8 -23 4 -30 21 -12 8 8 12 17 9 21 -11 11 -23 7 -30 -9z"/>
    <path d="M2905 1840 c3 -5 10 -10 16 -10 5 0 9 5 9 10 0 6 -7 10 -16 10 -8 0 -12 -4 -9 -10z"/>
    <path d="M1870 1829 c0 -5 5 -7 10 -4 6 3 10 8 10 11 0 2 -4 4 -10 4 -5 0 -10 -5 -10 -11z"/>
    <path d="M4190 1825 c0 -8 2 -15 4 -15 2 0 6 7 10 15 3 8 1 15 -4 15 -6 0 -10 -7 -10 -15z"/>
    <path d="M1940 1804 c0 -14 4 -23 10 -19 6 3 10 15 10 26 0 10 -4 19 -10 19 -5 0 -10 -12 -10 -26z"/>
    <path d="M725 1810 c-3 -6 1 -7 9 -4 18 7 21 14 7 14 -6 0 -13 -4 -16 -10z"/>
    <path d="M860 1811 c0 -5 7 -12 16 -15 14 -5 15 -4 4 9 -14 17 -20 19 -20 6z"/>
    <path d="M1625 1795 c4 -16 9 -47 12 -67 3 -21 10 -38 15 -38 13 0 0 78 -19 110 l-14 25 6 -30z"/>
    <path d="M1760 1796 c0 -9 5 -16 10 -16 6 0 10 4 10 9 0 6 -4 13 -10 16 -5 3 -10 -1 -10 -9z"/>
    <path d="M2476 1788 c-3 -13 -1 -27 4 -32 7 -7 10 1 10 22 0 37 -5 41 -14 10z"/>
    <path d="M731 1791 c-9 -6 -10 -11 -3 -15 13 -8 42 -64 42 -81 0 -18 27 -38 34 -26 7 10 -38 116 -52 125 -4 2 -14 1 -21 -3z"/>
    <path d="M1570 1780 c0 -12 -7 -20 -17 -21 -11 0 -13 -3 -5 -6 6 -2 12 -18 12 -34 0 -16 5 -29 10 -29 6 0 10 25 10 55 0 30 -2 55 -5 55 -3 0 -5 -9 -5 -20z"/>
    <path d="M1713 1745 c0 -33 2 -45 4 -27 2 18 2 45 0 60 -2 15 -4 0 -4 -33z"/>
    <path d="M2082 1776 c1 -13 6 -22 10 -20 11 7 10 32 -2 39 -6 3 -9 -4 -8 -19z"/>
    <path d="M830 1770 c0 -19 11 -26 23 -14 8 8 -3 34 -14 34 -5 0 -9 -9 -9 -20z"/>
    <path d="M940 1777 c0 -7 6 -21 13 -32 18 -24 32 -3 17 25 -12 23 -30 27 -30 7z"/>
    <path d="M2920 1781 c0 -19 12 -41 20 -36 10 6 1 45 -11 45 -5 0 -9 -4 -9 -9z"/>
    <path d="M4170 1771 c0 -14 29 -41 46 -41 21 0 17 6 -16 30 -16 12 -30 17 -30 11z"/>
    <path d="M1778 1740 c2 -16 6 -30 8 -30 2 0 4 14 4 30 0 17 -4 30 -8 30 -5 0 -7 -13 -4 -30z"/>
    <path d="M1900 1745 c0 -14 2 -25 4 -25 2 0 6 11 8 25 3 14 1 25 -3 25 -5 0 -9 -11 -9 -25z"/>
    <path d="M3065 1756 c-28 -8 -35 -14 -24 -18 20 -8 87 6 102 21 15 15 -25 13 -78 -3z"/>
    <path d="M900 1749 c0 -5 5 -7 10 -4 6 3 10 8 10 11 0 2 -4 4 -10 4 -5 0 -10 -5 -10 -11z"/>
    <path d="M3350 1751 c0 -14 19 -23 64 -32 37 -6 39 -6 21 7 -10 8 -29 14 -42 14 -13 0 -23 5 -23 10 0 6 -4 10 -10 10 -5 0 -10 -4 -10 -9z"/>
    <path d="M2786 1735 c-3 -8 -1 -15 4 -15 6 0 10 7 10 15 0 8 -2 15 -4 15 -2 0 -6 -7 -10 -15z"/>
    <path d="M1430 1730 c0 -5 5 -10 10 -10 6 0 10 5 10 10 0 6 -4 10 -10 10 -5 0 -10 -4 -10 -10z"/>
    <path d="M2087 1687 c4 -47 20 -87 35 -87 5 0 8 5 8 10 0 6 -5 10 -11 10 -5 0 -7 5 -4 10 4 6 0 21 -8 34 -9 12 -17 34 -20 47 -2 13 -3 2 0 -24z"/>
    <path d="M2424 1729 c-4 -7 -2 -15 4 -17 7 -2 12 -10 12 -17 0 -7 7 -15 15 -19 8 -3 12 -12 9 -21 -3 -8 -1 -15 4 -15 24 0 22 23 -6 61 -21 28 -32 36 -38 28z"/>
    <path d="M2620 1710 c0 -5 5 -10 10 -10 6 0 10 5 10 10 0 6 -4 10 -10 10 -5 0 -10 -4 -10 -10z"/>
    <path d="M2975 1709 c-4 -5 -5 -12 -2 -15 2 -2 -2 -30 -9 -60 -7 -31 -10 -62 -8 -69 3 -7 1 -16 -5 -20 -6 -3 -11 -16 -11 -29 0 -12 -11 -33 -25 -46 -14 -13 -25 -29 -25 -35 0 -7 -22 -35 -50 -63 -30 -31 -48 -57 -44 -66 3 -7 1 -17 -5 -21 -16 -10 -13 -45 4 -45 14 0 20 23 16 57 -4 27 47 45 115 42 41 -3 69 0 71 6 4 12 -17 16 -84 18 -47 1 -53 9 -24 29 10 7 20 22 22 33 2 11 14 24 27 30 18 8 21 15 16 42 -5 24 -2 34 9 39 9 3 13 13 10 25 -3 11 -1 30 5 42 23 46 20 144 -3 106z"/>
    <path d="M1441 1694 c0 -11 3 -14 6 -6 3 7 2 16 -1 19 -3 4 -6 -2 -5 -13z"/>
    <path d="M2365 1700 c3 -5 8 -10 11 -10 2 0 4 5 4 10 0 6 -5 10 -11 10 -5 0 -7 -4 -4 -10z"/>
    <path d="M3965 1700 c-8 -13 -1 -24 14 -19 6 3 7 10 2 18 -6 10 -10 10 -16 1z"/>
    <path d="M4150 1700 c0 -9 25 -20 46 -20 9 0 13 4 10 9 -7 11 -56 21 -56 11z"/>
    <path d="M1956 1595 c7 -118 27 -176 23 -67 -2 46 2 66 12 73 8 5 9 9 3 9 -18 0 -26 31 -12 49 7 9 8 12 3 8 -5 -4 -15 3 -22 15 -12 20 -13 7 -7 -87z"/>
    <path d="M910 1682 c0 -18 19 -24 37 -13 10 6 13 11 6 11 -6 0 -18 3 -27 6 -9 3 -16 1 -16 -4z"/>
    <path d="M1462 1660 c0 -14 2 -19 5 -12 2 6 2 18 0 25 -3 6 -5 1 -5 -13z"/>
    <path d="M1648 1650 c2 -16 6 -30 8 -30 2 0 4 14 4 30 0 17 -4 30 -8 30 -5 0 -7 -13 -4 -30z"/>
    <path d="M1713 1648 c3 -18 8 -42 10 -53 3 -11 6 -28 6 -38 1 -10 6 -15 11 -12 6 3 10 0 10 -9 0 -8 -5 -17 -10 -19 -6 -3 -5 -4 2 -3 17 4 17 76 0 85 -7 4 -14 24 -15 44 -1 20 -6 37 -11 37 -4 0 -6 -15 -3 -32z"/>
    <path d="M2631 1673 c0 -4 4 -17 9 -28 8 -19 9 -19 9 2 1 12 -3 25 -9 28 -5 3 -10 3 -9 -2z"/>
    <path d="M3560 1668 c0 -18 18 -34 28 -24 3 4 -2 14 -11 23 -16 16 -17 16 -17 1z"/>
    <path d="M3755 1670 c3 -5 13 -10 21 -10 8 0 14 5 14 10 0 6 -9 10 -21 10 -11 0 -17 -4 -14 -10z"/>
    <path d="M1561 1654 c0 -11 3 -14 6 -6 3 7 2 16 -1 19 -3 4 -6 -2 -5 -13z"/>
    <path d="M2036 1661 c-4 -7 -5 -15 -2 -18 9 -9 19 4 14 18 -4 11 -6 11 -12 0z"/>
    <path d="M2820 1660 c0 -5 5 -10 11 -10 5 0 7 5 4 10 -3 6 -8 10 -11 10 -2 0 -4 -4 -4 -10z"/>
    <path d="M1894 1649 c-3 -6 -1 -16 5 -22 8 -8 11 -5 11 11 0 24 -5 28 -16 11z"/>
    <path d="M812 1645 c4 -4 3 -14 -4 -22 -8 -11 -8 -17 3 -26 7 -7 11 -8 7 -3 -4 5 -3 17 2 27 7 12 6 20 -2 25 -7 4 -10 4 -6 -1z"/>
    <path d="M2498 1645 c-7 -8 3 -54 13 -61 19 -11 7 -36 -35 -79 -25 -24 -41 -47 -36 -50 5 -3 27 12 48 33 53 52 72 59 72 27 0 -14 3 -25 8 -25 4 0 17 -21 30 -47 12 -27 28 -55 34 -64 9 -13 7 -23 -10 -47 -32 -44 -27 -48 15 -12 35 31 37 32 44 12 4 -11 21 -23 38 -27 33 -7 55 1 45 16 -3 5 -10 6 -16 3 -10 -6 -65 28 -81 50 -17 24 -58 93 -69 116 -7 14 -21 34 -31 45 -9 10 -16 24 -14 30 2 5 -4 21 -14 34 -11 13 -19 30 -19 37 0 14 -12 19 -22 9z"/>
    <path d="M270 1616 c0 -9 5 -16 10 -16 6 0 10 4 10 9 0 6 -4 13 -10 16 -5 3 -10 -1 -10 -9z"/>
    <path d="M2395 1620 c3 -5 13 -10 21 -10 8 0 14 5 14 10 0 6 -9 10 -21 10 -11 0 -17 -4 -14 -10z"/>
    <path d="M3900 1614 c0 -8 5 -12 10 -9 6 3 10 10 10 16 0 5 -4 9 -10 9 -5 0 -10 -7 -10 -16z"/>
    <path d="M3603 1599 c14 -8 22 -8 30 0 8 8 3 11 -18 11 -26 -1 -28 -2 -12 -11z"/>
    <path d="M2661 1590 c0 -8 4 -22 9 -30 12 -18 12 -2 0 25 -6 13 -9 15 -9 5z"/>
    <path d="M697 1583 c-4 -3 -7 -24 -7 -46 0 -51 13 -40 16 13 2 42 2 44 -9 33z"/>
    <path d="M1660 1577 c0 -32 44 -192 48 -174 2 10 -2 32 -8 50 -6 18 -14 52 -16 77 -6 45 -24 81 -24 47z"/>
    <path d="M3870 1580 c0 -5 7 -10 15 -10 8 0 15 5 15 10 0 6 -7 10 -15 10 -8 0 -15 -4 -15 -10z"/>
    <path d="M96 1565 c4 -8 8 -15 10 -15 2 0 4 7 4 15 0 8 -4 15 -10 15 -5 0 -7 -7 -4 -15z"/>
    <path d="M872 1564 c1 -9 9 -19 16 -22 9 -3 13 2 10 14 -1 9 -9 19 -16 22 -9 3 -13 -2 -10 -14z"/>
    <path d="M980 1573 c0 -5 4 -15 10 -23 11 -18 25 -7 17 15 -6 15 -27 21 -27 8z"/>
    <path d="M806 1561 c-4 -5 -2 -12 3 -15 5 -4 12 -2 15 3 4 5 2 12 -3 15 -5 4 -12 2 -15 -3z"/>
    <path d="M2082 1550 c0 -14 2 -19 5 -12 2 6 2 18 0 25 -3 6 -5 1 -5 -13z"/>
    <path d="M2287 1557 c-3 -7 4 -24 14 -38 10 -13 19 -30 19 -37 0 -7 5 -10 10 -7 7 4 8 11 2 18 -5 7 -13 27 -17 45 -7 33 -19 42 -28 19z"/>
    <path d="M1306 1515 c3 -22 8 -42 10 -44 9 -9 3 55 -6 69 -7 11 -8 3 -4 -25z"/>
    <path d="M1390 1526 c0 -9 5 -16 10 -16 6 0 10 4 10 9 0 6 -4 13 -10 16 -5 3 -10 -1 -10 -9z"/>
    <path d="M3280 1526 c0 -9 5 -16 10 -16 6 0 10 -9 10 -21 0 -11 4 -18 9 -15 12 8 3 42 -15 57 -11 9 -14 8 -14 -5z"/>
    <path d="M1069 1525 c-3 -6 -3 -21 1 -35 3 -14 8 -20 11 -15 3 6 3 21 -1 35 -3 14 -8 20 -11 15z"/>
    <path d="M4191 1514 c0 -11 3 -14 6 -6 3 7 2 16 -1 19 -3 4 -6 -2 -5 -13z"/>
    <path d="M812 1508 c6 -17 45 -20 45 -3 0 9 -10 15 -24 15 -14 0 -23 -5 -21 -12z"/>
    <path d="M1010 1480 c0 -19 11 -26 23 -14 8 8 -3 34 -14 34 -5 0 -9 -9 -9 -20z"/>
    <path d="M690 1480 c0 -5 5 -10 10 -10 6 0 10 5 10 10 0 6 -4 10 -10 10 -5 0 -10 -4 -10 -10z"/>
    <path d="M1137 1478 c-3 -10 -2 -20 3 -23 6 -4 10 -27 10 -53 1 -26 7 -60 15 -77 14 -29 14 -27 8 30 -8 81 -27 146 -36 123z"/>
    <path d="M1410 1474 c0 -8 5 -12 10 -9 6 4 8 11 5 16 -9 14 -15 11 -15 -7z"/>
    <path d="M1757 1445 c6 -51 21 -101 27 -94 2 2 -4 36 -15 74 -17 64 -18 65 -12 20z"/>
    <path d="M2270 1466 c0 -14 5 -28 10 -31 6 -4 10 7 10 24 0 17 -4 31 -10 31 -5 0 -10 -11 -10 -24z"/>
    <path d="M3025 1475 c11 -8 37 -31 59 -52 42 -41 76 -55 53 -22 -19 26 -103 89 -119 89 -8 -1 -5 -6 7 -15z"/>
    <path d="M2101 1463 c-1 -16 5 -23 17 -23 10 0 13 3 6 8 -6 4 -14 14 -17 22 -4 10 -6 8 -6 -7z"/>
    <path d="M3568 1473 c6 -2 18 -2 25 0 6 3 1 5 -13 5 -14 0 -19 -2 -12 -5z"/>
    <path d="M840 1455 c0 -8 2 -15 4 -15 2 0 6 7 10 15 3 8 1 15 -4 15 -6 0 -10 -7 -10 -15z"/>
    <path d="M2208 1445 c-7 -33 0 -51 13 -38 5 5 5 22 0 38 l-8 30 -5 -30z"/>
    <path d="M2340 1461 c0 -13 42 -85 52 -89 4 -2 8 -8 8 -14 0 -5 8 -22 19 -36 29 -42 82 -145 77 -150 -3 -2 8 -30 23 -61 15 -31 36 -78 47 -106 10 -27 21 -52 24 -55 7 -6 60 -124 60 -134 0 -14 83 -176 91 -176 4 0 11 -9 14 -20 3 -11 13 -20 20 -20 8 0 20 -8 27 -17 21 -28 76 -64 83 -54 6 10 -37 61 -51 61 -5 0 -17 8 -26 18 -10 9 -25 25 -35 34 -10 9 -26 34 -37 55 -10 21 -25 50 -32 65 -8 14 -14 33 -14 41 0 8 -7 20 -15 27 -8 7 -15 19 -15 28 0 8 -20 55 -45 104 -25 49 -43 93 -41 97 3 4 -9 31 -25 61 -16 29 -29 59 -29 67 0 8 -11 34 -25 59 -14 24 -24 47 -24 50 0 3 -20 33 -45 67 -25 34 -46 67 -46 74 0 7 -9 17 -20 23 -12 7 -20 7 -20 1z"/>
    <path d="M2720 1466 c0 -2 8 -10 18 -17 15 -13 16 -12 3 4 -13 16 -21 21 -21 13z"/>
    <path d="M3310 1450 c0 -19 23 -59 38 -65 11 -4 12 -2 5 7 -6 7 -13 25 -17 41 -6 25 -26 39 -26 17z"/>
    <path d="M2960 1441 c0 -5 9 -13 20 -16 11 -3 20 -15 20 -25 0 -10 9 -21 19 -25 11 -3 22 -19 26 -35 6 -29 15 -37 28 -24 9 9 -4 35 -14 28 -5 -3 -9 3 -9 14 0 11 -15 36 -34 56 -34 35 -56 46 -56 27z"/>
    <path d="M1432 1420 c0 -14 2 -19 5 -12 2 6 2 18 0 25 -3 6 -5 1 -5 -13z"/>
    <path d="M2720 1420 c0 -5 5 -10 11 -10 5 0 7 5 4 10 -3 6 -8 10 -11 10 -2 0 -4 -4 -4 -10z"/>
    <path d="M4180 1420 c0 -5 5 -10 10 -10 6 0 10 5 10 10 0 6 -4 10 -10 10 -5 0 -10 -4 -10 -10z"/>
    <path d="M690 1355 c0 -52 -5 -78 -20 -103 -24 -39 -25 -52 -4 -52 8 0 12 4 9 10 -3 5 1 20 8 32 17 27 28 150 16 169 -5 9 -9 -13 -9 -56z"/>
    <path d="M840 1410 c0 -5 7 -10 15 -10 8 0 15 5 15 10 0 6 -7 10 -15 10 -8 0 -15 -4 -15 -10z"/>
    <path d="M1501 1404 c0 -11 3 -14 6 -6 3 7 2 16 -1 19 -3 4 -6 -2 -5 -13z"/>
    <path d="M2108 1415 c-10 -16 3 -79 13 -64 6 10 9 7 9 -11 0 -15 4 -30 9 -35 5 -6 19 -50 31 -99 23 -91 48 -151 58 -142 3 3 0 23 -6 43 -6 21 -26 84 -43 141 -21 71 -29 113 -25 135 5 25 4 29 -6 19 -17 -17 -26 -15 -30 6 -2 9 -6 13 -10 7z"/>
    <path d="M1980 1400 c0 -5 5 -10 10 -10 6 0 10 5 10 10 0 6 -4 10 -10 10 -5 0 -10 -4 -10 -10z"/>
    <path d="M2296 1394 c-9 -23 -8 -26 6 -22 16 6 38 -15 38 -35 0 -7 11 -24 24 -36 24 -23 25 -23 19 -2 -3 11 -11 26 -19 32 -8 6 -14 18 -14 25 0 8 -4 14 -9 14 -5 0 -11 9 -14 20 -6 24 -22 26 -31 4z"/>
    <path d="M3992 1380 c0 -14 2 -19 5 -12 2 6 2 18 0 25 -3 6 -5 1 -5 -13z"/>
    <path d="M2720 1386 c0 -2 7 -9 15 -16 12 -10 15 -10 15 4 0 9 -7 16 -15 16 -8 0 -15 -2 -15 -4z"/>
    <path d="M1698 1358 c-5 -35 14 -148 25 -148 6 0 7 19 3 46 -3 26 -6 64 -6 85 0 42 -16 54 -22 17z"/>
    <path d="M1986 1348 c10 -53 44 -202 51 -218 3 -8 7 -30 9 -47 2 -18 7 -41 13 -50 8 -14 10 -9 11 26 0 43 -18 126 -46 209 -8 24 -12 47 -9 52 7 11 -15 60 -26 60 -5 0 -6 -15 -3 -32z"/>
    <path d="M850 1360 c0 -6 7 -10 15 -10 8 0 15 2 15 4 0 2 -7 6 -15 10 -8 3 -15 1 -15 -4z"/>
    <path d="M1521 1354 c0 -11 3 -14 6 -6 3 7 2 16 -1 19 -3 4 -6 -2 -5 -13z"/>
    <path d="M1942 1350 c0 -14 2 -19 5 -12 2 6 2 18 0 25 -3 6 -5 1 -5 -13z"/>
    <path d="M3162 1338 c12 -36 28 -59 28 -41 0 6 3 18 6 26 5 14 -20 47 -36 47 -5 0 -4 -15 2 -32z"/>
    <path d="M3205 1360 c-4 -6 5 -10 20 -10 15 0 24 4 20 10 -3 6 -12 10 -20 10 -8 0 -17 -4 -20 -10z"/>
    <path d="M3300 1333 c0 -22 2 -25 10 -13 13 20 13 40 0 40 -5 0 -10 -12 -10 -27z"/>
    <path d="M3360 1351 c0 -6 10 -17 22 -25 17 -12 24 -13 30 -3 4 7 -1 16 -15 24 -27 15 -37 16 -37 4z"/>
    <path d="M2061 1335 c0 -5 6 -19 14 -29 8 -11 15 -15 15 -10 0 6 -7 19 -15 30 -8 10 -14 15 -14 9z"/>
    <path d="M3445 1330 c-3 -5 1 -10 9 -10 9 0 16 5 16 10 0 6 -4 10 -9 10 -6 0 -13 -4 -16 -10z"/>
    <path d="M1580 1316 c0 -8 5 -18 10 -21 6 -4 10 -16 9 -28 -4 -40 1 -90 7 -84 14 14 13 76 -1 111 -16 38 -25 46 -25 22z"/>
    <path d="M1757 1295 c7 -49 13 -58 13 -19 0 16 -5 36 -10 44 -6 10 -7 2 -3 -25z"/>
    <path d="M820 1305 c0 -14 49 -14 53 0 1 6 -10 10 -25 10 -16 1 -28 -4 -28 -10z"/>
    <path d="M998 1314 c-5 -4 -8 -16 -8 -28 0 -14 3 -17 11 -9 6 6 9 19 7 28 -1 9 -6 13 -10 9z"/>
    <path d="M1789 1318 c-8 -15 -4 -48 5 -48 6 0 13 11 14 25 1 14 -3 25 -8 25 -6 0 -11 -1 -11 -2z"/>
    <path d="M3087 1313 c-12 -11 -7 -27 14 -52 26 -31 34 -21 18 23 -13 36 -20 42 -32 29z"/>
    <path d="M1061 1284 c0 -11 3 -14 6 -6 3 7 2 16 -1 19 -3 4 -6 -2 -5 -13z"/>
    <path d="M2307 1293 c-7 -11 10 -70 18 -62 2 2 0 20 -4 39 -4 20 -10 30 -14 23z"/>
    <path d="M3437 1276 c-3 -8 5 -19 18 -26 14 -7 22 -16 20 -20 -3 -5 2 -10 10 -14 10 -4 15 1 15 14 0 11 -6 20 -14 20 -7 0 -16 9 -19 20 -6 23 -22 26 -30 6z"/>
    <path d="M1861 1268 c0 -7 4 -22 9 -33 8 -18 9 -17 9 7 1 15 -3 30 -9 33 -5 3 -10 0 -9 -7z"/>
    <path d="M2261 1258 c-1 -15 4 -30 9 -33 12 -7 12 12 0 40 -8 18 -9 17 -9 -7z"/>
    <path d="M814 1258 c-3 -4 -4 -8 -2 -9 27 -5 68 -5 68 1 0 11 -60 18 -66 8z"/>
    <path d="M920 1249 c0 -5 5 -7 10 -4 6 3 10 8 10 11 0 2 -4 4 -10 4 -5 0 -10 -5 -10 -11z"/>
    <path d="M1780 1240 c0 -5 5 -10 11 -10 5 0 7 5 4 10 -3 6 -8 10 -11 10 -2 0 -4 -4 -4 -10z"/>
    <path d="M3009 1244 c-9 -17 -4 -47 9 -51 13 -5 15 12 3 41 -4 11 -10 15 -12 10z"/>
    <path d="M3260 1241 c0 -6 16 -11 36 -11 29 0 44 -8 71 -36 34 -37 49 -41 37 -11 -13 35 -144 88 -144 58z"/>
    <path d="M1140 1215 c0 -15 4 -24 10 -20 6 3 10 12 10 20 0 8 -4 17 -10 20 -6 4 -10 -5 -10 -20z"/>
    <path d="M3169 1224 c-12 -14 -11 -16 5 -13 11 2 21 10 24 17 5 17 -13 15 -29 -4z"/>
    <path d="M2842 1205 c6 -14 13 -23 16 -21 7 7 -9 46 -18 46 -5 0 -4 -11 2 -25z"/>
    <path d="M3120 1224 c0 -10 28 -34 41 -34 7 0 2 9 -11 20 -24 21 -30 24 -30 14z"/>
    <path d="M89 1207 c-9 -7 -13 -19 -10 -29 5 -14 8 -13 24 7 19 26 11 40 -14 22z"/>
    <path d="M990 1208 c0 -9 5 -20 10 -23 13 -8 13 5 0 25 -8 13 -10 13 -10 -2z"/>
    <path d="M1434 1185 c3 -22 8 -49 11 -60 2 -11 9 -40 15 -64 16 -64 33 -87 26 -36 -9 73 -36 179 -47 189 -9 8 -10 1 -5 -29z"/>
    <path d="M3514 1206 c3 -20 26 -46 41 -46 7 0 32 -16 56 -35 24 -19 50 -35 57 -35 7 0 23 -11 36 -25 13 -14 31 -25 40 -25 12 0 9 8 -14 30 -17 17 -33 30 -35 30 -6 0 -108 62 -115 69 -3 4 -19 16 -37 28 -21 15 -30 18 -29 9z"/>
    <path d="M826 1200 c13 -13 58 -16 64 -5 3 6 -12 11 -34 12 -21 0 -34 -3 -30 -7z"/>
    <path d="M1218 1144 c-5 -79 0 -113 13 -92 11 17 11 129 0 147 -5 8 -10 -12 -13 -55z"/>
    <path d="M1050 1179 c0 -24 23 -21 28 4 2 10 -3 17 -12 17 -10 0 -16 -9 -16 -21z"/>
    <path d="M1497 1188 c6 -7 13 -20 16 -28 3 -9 6 -3 6 13 1 19 -4 27 -15 27 -12 0 -14 -4 -7 -12z"/>
    <path d="M1872 1175 c0 -16 2 -22 5 -12 2 9 2 23 0 30 -3 6 -5 -1 -5 -18z"/>
    <path d="M1980 1190 c0 -5 5 -10 11 -10 5 0 7 5 4 10 -3 6 -8 10 -11 10 -2 0 -4 -4 -4 -10z"/>
    <path d="M2335 1162 c0 -24 7 -46 19 -58 19 -19 19 -19 11 6 -4 14 -9 40 -12 58 -7 44 -19 40 -18 -6z"/>
    <path d="M644 1175 c-4 -8 -7 -26 -8 -40 0 -16 -6 -23 -13 -20 -7 2 -13 1 -14 -3 0 -4 -2 -16 -4 -27 -3 -19 -3 -19 9 -3 7 10 16 15 19 11 7 -6 11 12 8 30 -1 4 6 21 14 37 9 18 11 30 5 30 -6 0 -13 -7 -16 -15z"/>
    <path d="M2430 1181 c0 -5 5 -13 10 -16 6 -3 10 -2 10 4 0 5 -4 13 -10 16 -5 3 -10 2 -10 -4z"/>
    <path d="M3040 1180 c0 -6 7 -10 15 -10 8 0 15 2 15 4 0 2 -7 6 -15 10 -8 3 -15 1 -15 -4z"/>
    <path d="M1577 1173 c-3 -5 -1 -17 4 -28 7 -17 8 -17 8 8 1 27 -4 34 -12 20z"/>
    <path d="M3137 1173 c-5 -7 -6 -17 -2 -22 3 -5 1 -12 -5 -16 -6 -4 -5 -12 5 -21 8 -9 15 -24 15 -35 0 -32 17 -21 18 11 0 17 -3 30 -8 30 -5 0 -10 15 -12 33 -2 20 -6 28 -11 20z"/>
    <path d="M3825 1170 c-4 -7 -2 -16 6 -21 18 -11 23 -4 11 17 -7 12 -11 13 -17 4z"/>
    <path d="M3972 1160 c0 -14 2 -19 5 -12 2 6 2 18 0 25 -3 6 -5 1 -5 -13z"/>
    <path d="M820 1149 c0 -5 6 -9 13 -9 6 0 23 -3 36 -7 17 -4 22 -2 19 7 -4 14 -68 23 -68 9z"/>
    <path d="M3330 1133 c0 -20 5 -30 16 -30 10 0 14 8 12 25 -4 37 -28 40 -28 5z"/>
    <path d="M3466 1145 c4 -8 10 -15 15 -15 5 0 9 7 9 15 0 8 -7 15 -15 15 -9 0 -12 -6 -9 -15z"/>
    <path d="M2454 1116 c5 -41 12 -53 22 -43 4 4 2 13 -4 20 -7 8 -9 16 -6 20 3 3 1 14 -6 24 -9 15 -10 11 -6 -21z"/>
    <path d="M3394 1123 c-10 -47 -14 -54 -24 -48 -5 3 -10 -3 -10 -14 0 -12 -3 -20 -7 -19 -14 4 -53 -13 -53 -23 0 -12 27 -12 35 1 3 6 15 10 26 10 10 0 19 5 19 11 0 6 9 22 20 36 21 28 26 58 10 68 -5 3 -12 -7 -16 -22z"/>
    <path d="M3530 1136 c0 -9 5 -16 10 -16 6 0 10 4 10 9 0 6 -4 13 -10 16 -5 3 -10 -1 -10 -9z"/>
    <path d="M1945 1130 c-3 -5 1 -20 9 -32 9 -12 16 -29 16 -38 0 -8 7 -28 15 -44 8 -15 15 -40 16 -55 0 -26 0 -26 11 -3 8 16 8 28 -1 45 -6 12 -13 33 -16 47 -5 26 -33 90 -40 90 -2 0 -7 -4 -10 -10z"/>
    <path d="M1757 1095 c3 -16 10 -33 16 -36 5 -4 6 -12 3 -18 -4 -6 -2 -11 3 -11 16 0 14 11 -9 56 -18 35 -19 36 -13 9z"/>
    <path d="M2674 1090 c-4 -16 -13 -35 -20 -41 -8 -6 -14 -18 -14 -26 0 -12 2 -12 13 -1 17 19 47 74 47 87 0 24 -21 9 -26 -19z"/>
    <path d="M3827 1100 c-3 -11 -1 -23 4 -26 5 -3 9 6 9 20 0 31 -6 34 -13 6z"/>
    <path d="M815 1090 c3 -5 22 -10 41 -10 21 0 33 4 29 10 -3 6 -22 10 -41 10 -21 0 -33 -4 -29 -10z"/>
    <path d="M1400 1067 c0 -10 7 -25 15 -33 19 -19 19 -7 0 26 -11 20 -14 21 -15 7z"/>
    <path d="M2365 1070 c3 -5 8 -10 11 -10 2 0 4 5 4 10 0 6 -5 10 -11 10 -5 0 -7 -4 -4 -10z"/>
    <path d="M1540 1060 c0 -5 5 -10 11 -10 5 0 7 5 4 10 -3 6 -8 10 -11 10 -2 0 -4 -4 -4 -10z"/>
    <path d="M1844 1043 c11 -43 30 -82 42 -87 8 -3 5 13 -6 44 -10 27 -16 51 -13 53 2 3 -4 7 -13 11 -13 5 -15 2 -10 -21z"/>
    <path d="M2480 1057 c0 -18 24 -66 31 -62 10 7 0 35 -18 53 -7 7 -13 12 -13 9z"/>
    <path d="M2997 1046 c-3 -8 0 -21 6 -30 10 -14 12 -12 14 14 2 31 -11 41 -20 16z"/>
    <path d="M3092 1048 c1 -9 -6 -24 -17 -33 -19 -15 -19 -16 -1 -13 28 4 44 34 27 50 -10 11 -12 10 -9 -4z"/>
    <path d="M816 1042 c-9 -14 42 -24 62 -13 15 9 15 10 -5 11 -12 0 -28 3 -36 6 -8 3 -18 1 -21 -4z"/>
    <path d="M3220 1036 c0 -11 8 -16 28 -15 15 0 21 3 12 6 -8 3 -21 10 -27 16 -9 7 -13 5 -13 -7z"/>
    <path d="M3486 1035 c6 -16 42 -30 52 -21 7 7 -28 35 -45 36 -7 0 -10 -7 -7 -15z"/>
    <path d="M1549 1029 c-4 -38 4 -105 12 -114 7 -7 8 12 3 55 -7 64 -13 87 -15 59z"/>
    <path d="M2358 1033 c6 -2 12 -14 12 -24 0 -19 26 -79 34 -79 2 0 4 12 4 28 0 35 -28 82 -48 81 -10 0 -11 -2 -2 -6z"/>
    <path d="M3440 1032 c0 -7 -7 -12 -15 -12 -8 0 -15 -4 -15 -10 0 -5 7 -10 15 -10 17 0 32 27 21 37 -3 4 -6 1 -6 -5z"/>
    <path d="M3801 1033 c0 -5 4 -17 9 -28 8 -18 9 -17 9 8 1 15 -3 27 -9 27 -5 0 -10 -3 -9 -7z"/>
    <path d="M4000 1024 c0 -8 5 -12 10 -9 6 3 10 10 10 16 0 5 -4 9 -10 9 -5 0 -10 -7 -10 -16z"/>
    <path d="M195 1020 c3 -5 8 -10 11 -10 2 0 4 5 4 10 0 6 -5 10 -11 10 -5 0 -7 -4 -4 -10z"/>
    <path d="M1617 1023 c-2 -5 -1 -19 4 -33 7 -23 7 -23 8 8 1 31 -3 40 -12 25z"/>
    <path d="M3122 973 c-24 -53 -20 -70 9 -34 15 19 28 81 16 81 -2 0 -13 -21 -25 -47z"/>
    <path d="M1246 1001 c-3 -5 1 -31 9 -57 21 -70 19 -127 -5 -149 -11 -10 -17 -22 -14 -26 8 -14 24 -10 24 5 0 8 7 16 15 20 18 6 21 89 5 131 -5 14 -11 39 -12 55 -2 30 -12 38 -22 21z"/>
    <path d="M2080 1002 c0 -22 13 -42 26 -42 20 0 17 14 -6 35 -11 10 -20 13 -20 7z"/>
    <path d="M2263 981 c6 -17 14 -28 18 -25 8 5 -12 54 -23 54 -3 0 -1 -13 5 -29z"/>
    <path d="M3030 999 c0 -5 5 -7 10 -4 6 3 10 8 10 11 0 2 -4 4 -10 4 -5 0 -10 -5 -10 -11z"/>
    <path d="M814 985 c23 -17 52 -20 61 -5 3 6 3 11 -2 11 -4 1 -24 3 -43 5 -33 3 -34 2 -16 -11z"/>
    <path d="M1007 994 c-4 -4 -7 -17 -7 -28 0 -19 1 -19 17 -3 12 11 14 20 7 27 -6 6 -13 7 -17 4z"/>
    <path d="M1801 963 c5 -21 9 -55 9 -75 0 -20 5 -40 11 -44 9 -5 10 12 4 61 -8 75 -13 95 -25 95 -4 0 -4 -17 1 -37z"/>
    <path d="M3596 985 c-3 -8 -1 -15 4 -15 6 0 10 7 10 15 0 8 -2 15 -4 15 -2 0 -6 -7 -10 -15z"/>
    <path d="M1386 974 c-9 -24 -7 -54 4 -54 6 0 10 16 10 35 0 38 -4 44 -14 19z"/>
    <path d="M3377 971 c-3 -12 -1 -21 3 -21 14 0 19 15 11 29 -6 9 -10 7 -14 -8z"/>
    <path d="M3466 964 c12 -18 19 -22 25 -13 11 18 -1 39 -22 39 -19 0 -19 -1 -3 -26z"/>
    <path d="M3271 968 c5 -43 -18 -63 -68 -61 -7 1 -13 -6 -13 -14 0 -12 7 -14 31 -9 17 3 35 6 39 6 5 0 11 13 15 30 4 16 11 32 16 35 14 10 10 25 -6 25 -9 0 -15 -6 -14 -12z"/>
    <path d="M2525 961 c-3 -5 -1 -12 5 -16 5 -3 10 1 10 9 0 18 -6 21 -15 7z"/>
    <path d="M3323 941 c0 -51 75 -79 91 -33 3 9 10 27 15 39 8 18 7 21 -5 16 -7 -3 -14 -10 -14 -15 0 -6 -10 -19 -22 -30 -24 -20 -38 -13 -41 20 -2 32 -24 35 -24 3z"/>
    <path d="M1496 916 c3 -47 24 -75 24 -32 0 15 -4 25 -9 21 -5 -3 -12 7 -14 22 -2 16 -3 11 -1 -11z"/>
    <path d="M1050 941 c0 -5 -3 -18 -7 -28 -6 -16 -5 -16 10 -4 19 15 23 41 7 41 -5 0 -10 -4 -10 -9z"/>
    <path d="M2118 938 c-7 -16 43 -126 59 -132 6 -3 -2 28 -19 67 -35 84 -34 82 -40 65z"/>
    <path d="M3586 941 c-14 -5 -16 -10 -8 -15 7 -4 12 -4 12 0 0 3 7 1 15 -6 18 -15 42 1 31 19 -8 12 -22 13 -50 2z"/>
    <path d="M820 931 c0 -13 27 -21 45 -15 25 10 17 24 -15 24 -16 0 -30 -4 -30 -9z"/>
    <path d="M1180 924 c0 -8 5 -12 10 -9 6 3 10 10 10 16 0 5 -4 9 -10 9 -5 0 -10 -7 -10 -16z"/>
    <path d="M2290 899 c0 -17 8 -43 19 -57 10 -15 22 -42 26 -59 3 -18 11 -33 17 -33 6 0 7 8 3 18 -4 9 -8 22 -9 27 -4 20 -49 135 -52 135 -2 0 -4 -14 -4 -31z"/>
    <path d="M2553 902 c0 -22 3 -30 10 -23 7 7 7 18 0 33 -10 22 -11 21 -10 -10z"/>
    <path d="M3514 917 c3 -10 6 -37 6 -58 0 -22 4 -38 9 -35 4 3 6 16 4 29 -4 22 -2 24 29 21 18 -2 24 -1 13 2 -11 3 -30 18 -43 33 -17 18 -22 21 -18 8z"/>
    <path d="M1000 889 c7 -11 14 -18 17 -15 8 8 -5 36 -17 36 -7 0 -7 -6 0 -21z"/>
    <path d="M1895 900 c3 -5 8 -10 11 -10 2 0 4 5 4 10 0 6 -5 10 -11 10 -5 0 -7 -4 -4 -10z"/>
    <path d="M3444 895 c-4 -9 -2 -30 4 -48 9 -30 10 -30 12 -7 1 14 2 28 1 33 0 4 6 7 15 7 20 0 13 24 -9 28 -10 2 -20 -4 -23 -13z"/>
    <path d="M1074 875 c-24 -37 -12 -40 21 -5 22 23 25 30 12 30 -9 0 -24 -11 -33 -25z"/>
    <path d="M190 880 c0 -5 5 -10 10 -10 6 0 10 5 10 10 0 6 -4 10 -10 10 -5 0 -10 -4 -10 -10z"/>
    <path d="M797 883 c-3 -5 10 -13 29 -19 26 -9 38 -8 52 2 16 12 15 13 -8 14 -14 0 -35 3 -46 6 -12 3 -24 2 -27 -3z"/>
    <path d="M3053 883 c-7 -2 -13 -12 -13 -20 0 -11 5 -13 18 -8 9 5 29 8 45 8 15 -1 27 3 27 8 0 5 -9 9 -19 9 -11 0 -25 2 -33 4 -7 3 -19 2 -25 -1z"/>
    <path d="M3143 868 c1 -25 -25 -78 -39 -78 -8 0 -14 -7 -14 -15 0 -22 22 -9 48 28 22 33 30 77 13 77 -5 0 -8 -6 -8 -12z"/>
    <path d="M3296 864 c-3 -9 -6 -24 -6 -35 0 -24 -1 -24 -46 1 -35 20 -37 20 -50 3 -16 -21 -18 -43 -4 -43 6 0 10 7 10 15 0 18 14 19 60 2 28 -9 34 -17 32 -34 -2 -13 1 -23 6 -23 12 0 22 35 22 82 0 39 -14 58 -24 32z"/>
    <path d="M3628 869 c-6 -18 3 -69 13 -69 4 0 5 17 2 38 -7 43 -9 48 -15 31z"/>
    <path d="M2576 837 c1 -18 5 -39 8 -48 4 -9 6 -20 5 -25 -4 -22 2 -44 11 -44 6 0 10 18 8 44 -2 24 -7 42 -12 39 -5 -4 -6 5 -3 19 4 16 2 30 -6 36 -9 8 -12 3 -11 -21z"/>
    <path d="M911 857 c2 -1 11 -8 20 -15 13 -9 16 -9 16 3 0 8 -9 15 -20 15 -11 0 -18 -1 -16 -3z"/>
    <path d="M2425 851 c-3 -5 -1 -12 5 -16 5 -3 10 1 10 9 0 18 -6 21 -15 7z"/>
    <path d="M1400 833 c0 -5 5 -15 10 -23 8 -12 10 -11 10 8 0 12 -4 22 -10 22 -5 0 -10 -3 -10 -7z"/>
    <path d="M1461 824 c0 -11 3 -14 6 -6 3 7 2 16 -1 19 -3 4 -6 -2 -5 -13z"/>
    <path d="M1516 824 c-9 -22 -7 -57 3 -73 6 -9 10 2 13 34 3 47 -5 68 -16 39z"/>
    <path d="M1585 830 c3 -5 8 -10 11 -10 2 0 4 5 4 10 0 6 -5 10 -11 10 -5 0 -7 -4 -4 -10z"/>
    <path d="M3388 822 c-23 -14 -54 -72 -39 -72 4 0 21 16 38 35 17 19 36 35 42 35 6 0 11 4 11 8 0 13 -26 10 -52 -6z"/>
    <path d="M3550 834 c0 -9 40 -23 44 -15 3 5 -5 11 -19 13 -14 3 -25 4 -25 2z"/>
    <path d="M815 816 c24 -19 48 -21 43 -3 -3 6 -18 13 -34 15 -28 3 -28 3 -9 -12z"/>
    <path d="M3710 820 c0 -5 5 -10 10 -10 6 0 10 5 10 10 0 6 -4 10 -10 10 -5 0 -10 -4 -10 -10z"/>
    <path d="M1785 791 c3 -18 5 -43 5 -55 1 -18 2 -19 10 -5 7 11 5 29 -5 55 l-15 39 5 -34z"/>
    <path d="M1580 790 c0 -11 5 -20 10 -20 6 0 10 9 10 20 0 11 -4 20 -10 20 -5 0 -10 -9 -10 -20z"/>
    <path d="M4100 795 c0 -8 5 -15 10 -15 6 0 10 7 10 15 0 8 -4 15 -10 15 -5 0 -10 -7 -10 -15z"/>
    <path d="M1098 793 c7 -3 16 -2 19 1 4 3 -2 6 -13 5 -11 0 -14 -3 -6 -6z"/>
    <path d="M3512 777 c-7 -8 -7 -18 -2 -27 8 -13 10 -12 10 3 0 9 5 17 10 17 6 0 10 5 10 10 0 14 -16 12 -28 -3z"/>
    <path d="M800 771 c0 -11 50 -24 58 -16 8 8 -19 25 -40 25 -10 0 -18 -4 -18 -9z"/>
    <path d="M1005 770 c-3 -5 -2 -10 4 -10 5 0 13 5 16 10 3 6 2 10 -4 10 -5 0 -13 -4 -16 -10z"/>
    <path d="M3025 770 c3 -5 8 -10 11 -10 2 0 4 5 4 10 0 6 -5 10 -11 10 -5 0 -7 -4 -4 -10z"/>
    <path d="M3050 766 c0 -20 17 -39 42 -48 11 -5 15 -14 11 -27 -6 -25 3 -27 24 -6 17 17 10 47 -9 44 -26 -3 -38 1 -38 15 0 7 -7 19 -15 26 -12 10 -15 9 -15 -4z"/>
    <path d="M3181 748 c-1 -43 15 -59 28 -26 6 16 5 24 -5 26 -7 2 -15 11 -17 20 -3 9 -5 0 -6 -20z"/>
    <path d="M3460 771 c0 -5 7 -12 16 -15 14 -5 15 -4 4 9 -14 17 -20 19 -20 6z"/>
    <path d="M3678 747 c-13 -28 -14 -34 -2 -34 8 0 15 6 15 14 2 22 4 27 12 41 5 6 4 12 -1 12 -4 0 -15 -15 -24 -33z"/>
    <path d="M75 755 c-3 -8 -7 -22 -10 -30 -2 -8 0 -17 5 -20 10 -6 14 7 11 33 -1 6 5 12 14 12 8 0 15 5 15 10 0 16 -30 12 -35 -5z"/>
    <path d="M180 760 c0 -5 5 -10 10 -10 6 0 10 5 10 10 0 6 -4 10 -10 10 -5 0 -10 -4 -10 -10z"/>
    <path d="M3235 760 c-3 -6 1 -7 9 -4 18 7 21 14 7 14 -6 0 -13 -4 -16 -10z"/>
    <path d="M3566 754 c-5 -12 -2 -15 10 -10 8 3 18 6 20 6 2 0 4 5 4 10 0 16 -27 11 -34 -6z"/>
    <path d="M0 746 c0 -9 7 -19 15 -23 23 -8 25 0 4 21 -17 18 -19 18 -19 2z"/>
    <path d="M120 740 c0 -11 5 -20 10 -20 6 0 10 9 10 20 0 11 -4 20 -10 20 -5 0 -10 -9 -10 -20z"/>
    <path d="M1585 751 c-3 -5 -1 -12 5 -16 5 -3 10 1 10 9 0 18 -6 21 -15 7z"/>
    <path d="M1521 714 c0 -11 3 -14 6 -6 3 7 2 16 -1 19 -3 4 -6 -2 -5 -13z"/>
    <path d="M1876 717 c3 -10 9 -15 12 -12 3 3 0 11 -7 18 -10 9 -11 8 -5 -6z"/>
    <path d="M2356 715 c4 -8 8 -15 10 -15 2 0 4 7 4 15 0 8 -4 15 -10 15 -5 0 -7 -7 -4 -15z"/>
    <path d="M3586 689 c-28 -43 -29 -63 -1 -36 8 9 15 23 15 31 0 10 6 13 18 9 14 -6 15 -4 5 9 -7 8 -10 18 -6 21 3 4 4 7 1 7 -2 0 -17 -19 -32 -41z"/>
    <path d="M813 713 c9 -2 25 -2 35 0 9 3 1 5 -18 5 -19 0 -27 -2 -17 -5z"/>
    <path d="M1230 701 c0 -6 5 -13 11 -17 6 -3 9 -15 6 -25 -6 -23 -3 -23 28 -3 27 17 34 44 12 44 -7 0 -18 -5 -25 -12 -9 -9 -12 -8 -12 5 0 9 -4 17 -10 17 -5 0 -10 -4 -10 -9z"/>
    <path d="M3296 701 c-7 -10 22 -37 30 -28 9 8 -3 37 -15 37 -5 0 -12 -4 -15 -9z"/>
    <path d="M2644 686 c-3 -8 -2 -22 3 -31 8 -13 10 -10 10 14 0 34 -5 39 -13 17z"/>
    <path d="M3200 661 c-28 -27 -41 -46 -38 -61 5 -32 21 -29 30 7 5 20 20 39 38 50 31 18 36 28 21 38 -6 3 -28 -12 -51 -34z"/>
    <path d="M3345 690 c3 -5 10 -10 16 -10 5 0 9 5 9 10 0 6 -7 10 -16 10 -8 0 -12 -4 -9 -10z"/>
    <path d="M3637 658 c-15 -26 -27 -51 -27 -57 0 -6 -11 -11 -24 -11 -16 0 -26 7 -29 22 -4 12 -9 19 -13 16 -7 -8 27 -68 39 -68 5 0 8 -10 7 -22 -3 -38 -1 -50 10 -43 6 3 8 16 4 29 -3 15 7 43 31 86 20 35 34 70 33 79 -2 10 -14 -2 -31 -31z"/>
    <path d="M260 675 c0 -8 5 -15 10 -15 6 0 10 7 10 15 0 8 -4 15 -10 15 -5 0 -10 -7 -10 -15z"/>
    <path d="M3040 677 c-25 -13 -39 -37 -21 -37 12 0 55 40 49 45 -2 2 -14 -1 -28 -8z"/>
    <path d="M160 670 c0 -5 4 -10 9 -10 6 0 13 5 16 10 3 6 -1 10 -9 10 -9 0 -16 -4 -16 -10z"/>
    <path d="M215 661 c3 -11 1 -22 -5 -26 -14 -9 -13 -25 3 -25 7 0 19 -9 27 -20 8 -11 20 -20 27 -20 7 0 13 -3 13 -7 0 -9 51 -35 57 -30 2 2 -19 22 -46 45 -31 26 -52 53 -56 72 -4 16 -11 30 -16 30 -6 0 -8 -9 -4 -19z"/>
    <path d="M302 660 c-15 -24 -15 -33 -2 -25 6 3 10 0 10 -8 0 -8 11 -22 25 -31 32 -21 32 -6 0 24 -16 15 -23 30 -19 42 7 24 2 23 -14 -2z"/>
    <path d="M790 670 c8 -5 26 -9 40 -9 l25 1 -25 8 c-14 4 -32 8 -40 9 -13 1 -13 0 0 -9z"/>
    <path d="M1475 658 c-4 -10 -4 -26 0 -35 8 -17 8 -17 12 0 3 9 3 25 0 35 -4 16 -4 16 -12 0z"/>
    <path d="M1525 645 c4 -11 11 -42 15 -70 l7 -50 2 56 c1 42 -3 60 -16 70 -15 13 -16 12 -8 -6z"/>
    <path d="M3089 651 c-1 -3 0 -16 1 -28 2 -27 -7 -29 -38 -8 -20 15 -21 15 -15 -2 8 -23 23 -33 50 -33 12 0 23 -4 25 -10 2 -5 4 12 4 38 2 36 -2 49 -12 49 -8 0 -14 -3 -15 -6z"/>
    <path d="M130 646 c0 -2 9 -6 20 -9 11 -3 18 -1 14 4 -5 9 -34 13 -34 5z"/>
    <path d="M895 630 c3 -5 8 -10 11 -10 2 0 4 5 4 10 0 6 -5 10 -11 10 -5 0 -7 -4 -4 -10z"/>
    <path d="M3258 632 c-10 -2 -18 -10 -18 -18 0 -8 -4 -14 -10 -14 -5 0 -10 -7 -10 -15 0 -8 5 -15 10 -15 6 0 10 6 10 14 0 17 27 30 58 27 13 -2 22 3 22 11 0 13 -29 18 -62 10z"/>
    <path d="M3362 620 c0 -14 2 -19 5 -12 2 6 2 18 0 25 -3 6 -5 1 -5 -13z"/>
    <path d="M776 622 c-8 -14 45 -25 57 -13 8 8 6 11 -5 11 -9 0 -23 3 -31 6 -8 3 -18 1 -21 -4z"/>
    <path d="M1721 595 c1 -40 1 -40 10 -10 5 18 5 33 -1 39 -7 7 -10 -4 -9 -29z"/>
    <path d="M3912 591 c-14 -46 -15 -51 -3 -51 8 0 25 79 18 86 -2 2 -9 -13 -15 -35z"/>
    <path d="M1025 600 c-3 -5 -1 -10 4 -10 6 0 11 5 11 10 0 6 -2 10 -4 10 -3 0 -8 -4 -11 -10z"/>
    <path d="M1160 574 c0 -21 4 -33 10 -29 6 3 10 19 10 36 0 16 -4 29 -10 29 -5 0 -10 -16 -10 -36z"/>
    <path d="M2520 600 c0 -5 5 -10 10 -10 6 0 10 5 10 10 0 6 -4 10 -10 10 -5 0 -10 -4 -10 -10z"/>
    <path d="M3330 599 c0 -5 5 -7 10 -4 6 3 10 8 10 11 0 2 -4 4 -10 4 -5 0 -10 -5 -10 -11z"/>
    <path d="M375 590 c-3 -5 -1 -10 4 -10 6 0 11 5 11 10 0 6 -2 10 -4 10 -3 0 -8 -4 -11 -10z"/>
    <path d="M700 590 c0 -5 5 -10 10 -10 6 0 10 5 10 10 0 6 -4 10 -10 10 -5 0 -10 -4 -10 -10z"/>
    <path d="M3420 573 c0 -14 -5 -34 -11 -46 -12 -22 -12 -22 10 -3 12 11 20 24 18 30 -3 6 -1 18 4 27 5 11 3 16 -7 16 -8 0 -14 -10 -14 -24z"/>
    <path d="M730 586 c0 -2 7 -6 15 -10 8 -3 15 -1 15 4 0 6 -7 10 -15 10 -8 0 -15 -2 -15 -4z"/>
    <path d="M1477 583 c-5 -11 0 -83 7 -90 3 -4 6 17 6 45 0 49 -4 62 -13 45z"/>
    <path d="M1621 574 c0 -11 3 -14 6 -6 3 7 2 16 -1 19 -3 4 -6 -2 -5 -13z"/>
    <path d="M784 568 c-12 -19 30 -35 53 -20 8 5 3 12 -17 19 -20 8 -32 8 -36 1z"/>
    <path d="M980 556 c0 -14 5 -26 10 -26 6 0 10 9 10 19 0 11 -4 23 -10 26 -6 4 -10 -5 -10 -19z"/>
    <path d="M2600 564 c0 -8 5 -12 10 -9 6 3 10 10 10 16 0 5 -4 9 -10 9 -5 0 -10 -7 -10 -16z"/>
    <path d="M1052 558 c-7 -7 -12 -21 -12 -32 0 -18 1 -18 20 4 11 12 17 27 14 31 -7 11 -8 11 -22 -3z"/>
    <path d="M2757 538 c3 -18 12 -47 20 -65 8 -17 14 -40 13 -50 -4 -38 0 -49 11 -30 12 20 4 84 -13 104 -5 6 -8 17 -7 25 3 17 -11 48 -22 48 -5 0 -6 -15 -2 -32z"/>
    <path d="M3300 550 c-27 -23 -6 -28 24 -5 10 8 23 12 27 9 5 -3 9 0 9 5 0 18 -35 12 -60 -9z"/>
    <path d="M375 550 c3 -5 11 -10 16 -10 6 0 7 5 4 10 -3 6 -11 10 -16 10 -6 0 -7 -4 -4 -10z"/>
    <path d="M1258 554 c-5 -4 -8 -16 -8 -28 0 -14 3 -17 11 -9 6 6 9 19 7 28 -1 9 -6 13 -10 9z"/>
    <path d="M1957 546 c-4 -10 -5 -21 -2 -24 9 -9 17 6 13 25 -3 17 -4 17 -11 -1z"/>
    <path d="M2550 533 c0 -16 5 -35 10 -43 7 -11 10 -4 10 28 0 23 -4 42 -10 42 -5 0 -10 -12 -10 -27z"/>
    <path d="M1728 545 c-7 -11 6 -92 16 -102 7 -8 6 42 -3 82 -3 17 -9 25 -13 20z"/>
    <path d="M3160 541 c0 -19 73 -69 96 -67 36 4 41 16 7 16 -17 0 -36 7 -43 15 -7 8 -9 15 -5 15 4 0 2 7 -5 15 -14 16 -50 21 -50 6z"/>
    <path d="M915 531 c-3 -5 -2 -12 3 -15 5 -3 9 1 9 9 0 17 -3 19 -12 6z"/>
    <path d="M3040 530 c0 -5 7 -10 15 -10 8 0 15 5 15 10 0 6 -7 10 -15 10 -8 0 -15 -4 -15 -10z"/>
    <path d="M3111 528 c-1 -22 19 -68 31 -68 12 0 10 17 -6 32 -8 8 -16 23 -19 34 -4 15 -5 16 -6 2z"/>
    <path d="M420 520 c0 -5 5 -10 10 -10 6 0 10 5 10 10 0 6 -4 10 -10 10 -5 0 -10 -4 -10 -10z"/>
    <path d="M760 520 c0 -17 41 -33 53 -21 7 7 5 12 -6 16 -9 3 -24 7 -32 10 -8 2 -15 0 -15 -5z"/>
    <path d="M2661 514 c0 -11 3 -14 6 -6 3 7 2 16 -1 19 -3 4 -6 -2 -5 -13z"/>
    <path d="M3895 508 c-4 -10 0 -24 9 -33 9 -9 16 -21 16 -26 0 -6 5 -7 10 -4 15 9 12 27 -10 55 -16 22 -20 23 -25 8z"/>
    <path d="M350 498 c0 -9 5 -20 11 -23 17 -11 18 -2 3 19 -12 17 -14 17 -14 4z"/>
    <path d="M1801 480 c0 -19 4 -42 9 -50 7 -11 10 -8 9 15 0 17 -4 39 -9 50 -7 16 -9 14 -9 -15z"/>
    <path d="M2886 495 c-3 -9 0 -15 9 -15 7 0 16 -13 20 -30 4 -16 14 -34 23 -39 9 -5 16 -13 14 -18 -2 -4 1 -9 7 -11 16 -5 13 24 -4 38 -8 7 -15 20 -15 29 -1 15 -33 61 -43 61 -3 0 -7 -7 -11 -15z"/>
    <path d="M3530 501 c0 -6 5 -13 10 -16 6 -3 10 1 10 9 0 9 -4 16 -10 16 -5 0 -10 -4 -10 -9z"/>
    <path d="M1235 478 c-4 -13 -17 -33 -28 -46 -15 -16 -18 -25 -10 -33 8 -8 18 3 36 40 14 28 22 53 17 56 -5 3 -12 -5 -15 -17z"/>
    <path d="M3620 478 c-14 -12 -20 -23 -14 -25 14 -5 -12 -109 -36 -143 -9 -14 -20 -36 -24 -50 -4 -14 8 -1 28 30 20 30 36 67 36 83 0 15 5 27 10 27 6 0 10 11 10 25 0 14 4 25 9 25 11 0 22 38 13 44 -4 2 -18 -5 -32 -16z"/>
    <path d="M1541 474 c0 -11 3 -14 6 -6 3 7 2 16 -1 19 -3 4 -6 -2 -5 -13z"/>
    <path d="M2683 455 c0 -22 2 -30 4 -17 2 12 2 30 0 40 -3 9 -5 -1 -4 -23z"/>
    <path d="M2630 465 c0 -12 -6 -27 -12 -34 -11 -10 -10 -11 4 -6 21 8 29 28 17 46 -7 11 -9 9 -9 -6z"/>
    <path d="M3515 469 c-4 -6 -5 -12 -2 -15 2 -3 7 2 10 11 7 17 1 20 -8 4z"/>
    <path d="M772 458 c3 -7 13 -15 22 -16 12 -3 17 1 14 10 -3 7 -13 15 -22 16 -12 3 -17 -1 -14 -10z"/>
    <path d="M1475 461 c-3 -5 -1 -12 5 -16 5 -3 10 1 10 9 0 18 -6 21 -15 7z"/>
    <path d="M395 450 c3 -5 8 -10 11 -10 2 0 4 5 4 10 0 6 -5 10 -11 10 -5 0 -7 -4 -4 -10z"/>
    <path d="M2850 450 c-12 -8 -11 -12 8 -31 28 -25 35 -21 26 15 -7 28 -11 31 -34 16z"/>
    <path d="M3160 451 c0 -5 9 -7 20 -4 11 3 20 7 20 9 0 2 -9 4 -20 4 -11 0 -20 -4 -20 -9z"/>
    <path d="M3394 443 c2 -10 8 -18 14 -17 33 3 34 5 16 19 -25 19 -33 19 -30 -2z"/>
    <path d="M495 440 c3 -5 8 -10 11 -10 2 0 4 5 4 10 0 6 -5 10 -11 10 -5 0 -7 -4 -4 -10z"/>
    <path d="M2321 434 c0 -11 3 -14 6 -6 3 7 2 16 -1 19 -3 4 -6 -2 -5 -13z"/>
    <path d="M2450 433 c0 -13 5 -23 10 -23 13 0 13 11 0 30 -8 12 -10 11 -10 -7z"/>
    <path d="M2761 434 c0 -11 3 -14 6 -6 3 7 2 16 -1 19 -3 4 -6 -2 -5 -13z"/>
    <path d="M420 430 c0 -5 14 -25 30 -44 17 -18 37 -50 45 -70 8 -20 20 -36 27 -36 6 0 8 -3 5 -7 -4 -3 -3 -11 3 -18 17 -21 40 -129 40 -192 0 -49 3 -63 15 -63 37 0 7 190 -47 295 -42 85 -118 171 -118 135z"/>
    <path d="M1967 433 c-11 -10 -8 -43 3 -43 6 0 10 11 10 25 0 26 -2 29 -13 18z"/>
    <path d="M952 414 c-7 -8 -8 -14 -3 -14 10 0 25 19 20 25 -2 1 -10 -3 -17 -11z"/>
    <path d="M745 411 c6 -5 23 -13 39 -17 22 -5 28 -4 24 7 -2 8 -20 15 -39 17 -23 2 -31 0 -24 -7z"/>
    <path d="M1546 412 c-7 -13 6 -92 16 -92 4 0 8 23 7 50 -2 46 -10 62 -23 42z"/>
    <path d="M3211 404 c-17 -19 -12 -23 19 -13 14 4 18 8 10 8 -13 1 -13 2 0 11 13 9 13 10 0 9 -8 0 -21 -7 -29 -15z"/>
    <path d="M3650 400 c0 -11 2 -20 4 -20 2 0 6 9 9 20 3 11 1 20 -4 20 -5 0 -9 -9 -9 -20z"/>
    <path d="M888 403 c7 -3 16 -2 19 1 4 3 -2 6 -13 5 -11 0 -14 -3 -6 -6z"/>
    <path d="M1870 399 c0 -5 5 -7 10 -4 6 3 10 8 10 11 0 2 -4 4 -10 4 -5 0 -10 -5 -10 -11z"/>
    <path d="M2580 400 c0 -5 5 -10 11 -10 5 0 7 5 4 10 -3 6 -8 10 -11 10 -2 0 -4 -4 -4 -10z"/>
    <path d="M3326 394 c-4 -10 -14 -14 -25 -11 -10 2 -25 0 -32 -5 -10 -6 -1 -8 26 -7 47 3 78 16 70 30 -10 14 -32 11 -39 -7z"/>
    <path d="M1620 383 c0 -12 5 -25 10 -28 13 -8 13 15 0 35 -8 12 -10 11 -10 -7z"/>
    <path d="M2876 377 c3 -10 9 -15 12 -12 3 3 0 11 -7 18 -10 9 -11 8 -5 -6z"/>
    <path d="M1471 323 c1 -44 3 -52 9 -33 12 36 12 90 0 90 -6 0 -10 -25 -9 -57z"/>
    <path d="M740 361 c0 -11 50 -24 58 -16 8 8 -19 25 -40 25 -10 0 -18 -4 -18 -9z"/>
    <path d="M2982 345 c0 -16 2 -22 5 -12 2 9 2 23 0 30 -3 6 -5 -1 -5 -18z"/>
    <path d="M1201 344 c0 -11 3 -14 6 -6 3 7 2 16 -1 19 -3 4 -6 -2 -5 -13z"/>
    <path d="M3645 320 c4 -19 16 -44 26 -56 10 -11 19 -25 19 -32 0 -6 14 -34 30 -62 17 -28 41 -77 54 -108 13 -31 30 -58 36 -60 18 -6 5 41 -30 108 -16 30 -46 89 -67 130 -21 41 -46 84 -57 95 -18 20 -18 20 -11 -15z"/>
    <path d="M751 309 c5 -10 19 -19 31 -19 16 0 18 3 9 14 -6 8 -20 16 -31 19 -17 4 -18 2 -9 -14z"/>
    <path d="M945 320 c3 -5 8 -10 11 -10 2 0 4 5 4 10 0 6 -5 10 -11 10 -5 0 -7 -4 -4 -10z"/>
    <path d="M1265 320 c3 -5 13 -10 21 -10 8 0 12 5 9 10 -3 6 -13 10 -21 10 -8 0 -12 -4 -9 -10z"/>
    <path d="M850 305 c0 -9 5 -15 11 -13 6 2 11 8 11 13 0 5 -5 11 -11 13 -6 2 -11 -4 -11 -13z"/>
    <path d="M1214 252 c-1 -37 -3 -73 -5 -81 -2 -7 1 -15 7 -18 15 -5 23 49 16 115 -7 73 -17 65 -18 -16z"/>
    <path d="M2081 313 c-1 -6 -4 -20 -7 -30 -5 -17 -5 -17 6 0 6 10 9 23 6 30 -3 9 -5 9 -5 0z"/>
    <path d="M1551 294 c0 -11 3 -14 6 -6 3 7 2 16 -1 19 -3 4 -6 -2 -5 -13z"/>
    <path d="M1637 268 c-3 -24 -2 -47 4 -53 5 -5 9 10 9 43 0 63 -5 67 -13 10z"/>
    <path d="M2996 296 c4 -11 1 -16 -10 -16 -9 0 -16 -8 -16 -19 0 -11 -3 -28 -6 -38 -4 -13 -3 -15 4 -4 13 18 25 -1 32 -54 4 -34 9 -40 30 -43 22 -2 23 -1 8 8 -22 13 -24 40 -3 40 8 0 15 -5 15 -10 0 -6 17 -18 38 -26 20 -9 45 -20 55 -25 12 -7 17 -5 17 6 0 9 -8 18 -17 21 -75 25 -158 98 -147 129 10 24 22 18 50 -25 23 -34 110 -97 121 -87 7 7 -39 57 -47 52 -10 -6 -70 64 -70 82 0 7 -6 13 -14 13 -8 0 -22 3 -30 6 -12 5 -15 2 -10 -10z"/>
    <path d="M670 273 c-1 -7 -3 -16 -4 -20 -1 -5 -5 -15 -10 -23 -7 -12 -5 -11 9 1 9 9 15 25 12 35 -3 11 -6 13 -7 7z"/>
    <path d="M980 270 c0 -6 7 -10 15 -10 8 0 15 2 15 4 0 2 -7 6 -15 10 -8 3 -15 1 -15 -4z"/>
    <path d="M1121 259 c-4 -13 -6 -32 -3 -44 5 -18 6 -17 13 7 4 14 10 31 13 37 4 5 2 12 -4 16 -6 3 -14 -4 -19 -16z"/>
    <path d="M3730 271 c0 -6 9 -15 20 -21 11 -6 17 -16 14 -22 -4 -7 -3 -8 4 -4 7 4 12 10 12 14 -1 11 -50 44 -50 33z"/>
    <path d="M731 256 c-7 -8 -5 -12 7 -13 9 -1 28 -5 42 -9 22 -7 23 -6 12 8 -17 21 -49 29 -61 14z"/>
    <path d="M924 249 c-6 -11 13 -39 27 -39 5 0 9 9 9 19 0 21 -26 36 -36 20z"/>
    <path d="M1020 225 c-7 -14 -11 -28 -7 -31 7 -8 37 20 37 35 0 21 -18 19 -30 -4z"/>
    <path d="M3490 220 c-14 -10 -21 -22 -17 -26 4 -4 20 4 35 19 31 31 19 36 -18 7z"/>
    <path d="M1456 214 c-9 -24 -7 -54 4 -54 6 0 10 16 10 35 0 38 -4 44 -14 19z"/>
    <path d="M756 201 c-3 -5 1 -11 9 -15 8 -3 15 -1 15 4 0 13 -18 22 -24 11z"/>
    <path d="M3436 174 c-9 -24 -2 -26 12 -4 7 11 8 20 3 20 -5 0 -12 -7 -15 -16z"/>
    <path d="M880 160 c0 -6 7 -10 15 -10 8 0 15 2 15 4 0 2 -7 6 -15 10 -8 3 -15 1 -15 -4z"/>
    <path d="M3360 160 c0 -5 6 -10 14 -10 8 0 18 5 21 10 3 6 -3 10 -14 10 -12 0 -21 -4 -21 -10z"/>
    <path d="M760 145 c0 -8 7 -15 15 -15 9 0 12 6 9 15 -4 8 -10 15 -15 15 -5 0 -9 -7 -9 -15z"/>
    <path d="M2151 144 c0 -11 3 -14 6 -6 3 7 2 16 -1 19 -3 4 -6 -2 -5 -13z"/>
    <path d="M3203 153 c-21 -8 -15 -18 11 -19 17 -1 23 2 19 12 -5 15 -10 16 -30 7z"/>
    <path d="M630 123 c0 -13 5 -23 10 -23 13 0 13 11 0 30 -8 12 -10 11 -10 -7z"/>
    <path d="M1186 131 c-4 -7 -5 -15 -2 -18 9 -9 19 4 14 18 -4 11 -6 11 -12 0z"/>
    <path d="M1991 124 c0 -11 3 -14 6 -6 3 7 2 16 -1 19 -3 4 -6 -2 -5 -13z"/>
    <path d="M1438 106 c-3 -14 -2 -30 2 -36 4 -7 9 1 12 19 5 37 -8 52 -14 17z"/>
    <path d="M1246 109 c3 -10 1 -20 -4 -23 -5 -3 -7 -17 -5 -31 3 -13 9 -22 14 -19 5 3 7 10 3 15 -3 5 -1 16 5 23 8 9 7 18 -4 32 -11 14 -14 15 -9 3z"/>
    <path d="M732 98 c2 -6 15 -13 27 -15 20 -3 22 -1 11 12 -15 18 -43 20 -38 3z"/>
    <path d="M4036 95 c4 -8 10 -15 14 -15 5 0 30 -18 56 -40 66 -58 69 -40 3 20 -54 49 -84 64 -73 35z"/>
    <path d="M1173 93 c-7 -3 -13 -17 -13 -31 1 -25 1 -26 12 -7 6 11 18 25 26 31 12 9 12 11 1 11 -8 0 -20 -2 -26 -4z"/>
    <path d="M3055 68 c8 -35 25 -52 38 -39 9 9 -23 71 -36 71 -5 0 -5 -15 -2 -32z"/>
    <path d="M1316 73 c-6 -14 -5 -15 5 -6 7 7 10 15 7 18 -3 3 -9 -2 -12 -12z"/>
    <path d="M1651 64 c0 -11 3 -14 6 -6 3 7 2 16 -1 19 -3 4 -6 -2 -5 -13z"/>
    <path d="M635 42 c-3 -13 -4 -27 0 -30 3 -3 5 2 5 11 0 9 10 17 23 19 25 3 21 21 -5 23 -10 1 -19 -8 -23 -23z"/>
    <path d="M720 51 c0 -12 39 -25 48 -16 7 7 -17 25 -35 25 -7 0 -13 -4 -13 -9z"/>
    <path d="M1546 46 c3 -9 11 -16 16 -16 13 0 5 23 -10 28 -7 2 -10 -2 -6 -12z"/>
    <path d="M920 10 c0 -5 5 -10 10 -10 6 0 10 5 10 10 0 6 -4 10 -10 10 -5 0 -10 -4 -10 -10z"/>
    <path d="M723 3 c9 -2 23 -2 30 0 6 3 -1 5 -18 5 -16 0 -22 -2 -12 -5z"/>
  </g>
</svg>